<?xml version="1.0" encoding="UTF-8" standalone="no"?> <!-- Created with Vectornator for iOS (http://vectornator.io/) --><!DOCTYPE svg PUBLIC "-//W3C//DTD SVG 1.1//EN" "http://www.w3.org/Graphics/SVG/1.1/DTD/svg11.dtd">
<svg height="100%" style="fill-rule:nonzero;clip-rule:evenodd;stroke-linecap:round;stroke-linejoin:round;" xmlns:xlink="http://www.w3.org/1999/xlink" xmlns="http://www.w3.org/2000/svg" xml:space="preserve" width="100%" xmlns:vectornator="http://vectornator.io" version="1.1" viewBox="0 0 841.995 595.35">
<metadata>
<vectornator:setting key="DimensionsVisible" value="1"/>
<vectornator:setting key="PencilOnly" value="0"/>
<vectornator:setting key="SnapToPoints" value="0"/>
<vectornator:setting key="OutlineMode" value="0"/>
<vectornator:setting key="GuidesVisible" value="1"/>
<vectornator:setting key="CMYKEnabledKey" value="0"/>
<vectornator:setting key="SnapToEdges" value="0"/>
<vectornator:setting key="RulersVisible" value="1"/>
<vectornator:setting key="DisplayWhiteBackground" value="0"/>
<vectornator:setting key="doHistoryDisabled" value="0"/>
<vectornator:setting key="SnapToGuides" value="1"/>
<vectornator:setting key="TimeLapseWatermarkDisabled" value="0"/>
<vectornator:setting key="Units" value="Points"/>
<vectornator:setting key="SnapToGrid" value="0"/>
<vectornator:setting key="IsolateActiveLayer" value="0"/>
<vectornator:setting key="DynamicGuides" value="0"/>
</metadata>
<defs/>
<g id="Layer 1" vectornator:layerName="Layer 1">
<path stroke="#ba2a2a" stroke-width="2" d="M531.083+30.6085L747.024+30.6085C750.287+30.6085+752.933+34.1902+752.933+38.6085L752.933+228.516C752.933+232.935+750.287+236.516+747.024+236.516L531.083+236.516C527.82+236.516+525.174+232.935+525.174+228.516L525.174+38.6085C525.174+34.1902+527.82+30.6085+531.083+30.6085Z" fill="none" stroke-linecap="round" opacity="1" stroke-linejoin="round"/>
</g>
<g id="Untitled" vectornator:layerName="Untitled">
<path d="M593.512+145.253C593.512+143.043+595.303+141.253+597.512+141.253L621.512+141.253C623.721+141.253+625.512+143.043+625.512+145.253L625.512+149.253C625.512+151.462+623.721+153.253+621.512+153.253L597.512+153.253C595.303+153.253+593.512+151.462+593.512+149.253L593.512+145.253ZM621.512+147.253C621.512+148.357+620.617+149.253+619.512+149.253C618.408+149.253+617.512+148.357+617.512+147.253L621.512+147.253ZM593.512+161.253C593.512+159.043+595.303+157.253+597.512+157.253L621.512+157.253C623.721+157.253+625.512+159.043+625.512+161.253L625.512+165.253C625.512+167.462+623.721+169.253+621.512+169.253L597.512+169.253C595.303+169.253+593.512+167.462+593.512+165.253C593.512+165.253+593.512+161.253+593.512+161.253ZM621.512+163.253C621.512+164.357+620.617+165.253+619.512+165.253C618.408+165.253+617.512+164.357+617.512+163.253L621.512+163.253Z" fill-rule="evenodd" fill="#000000" opacity="1"/>
</g>
<g id="Untitled_2" vectornator:layerName="Untitled">
<path d="M687.76+102.986L687.76+108.986C687.76+112.3+694.028+114.986+701.76+114.986C709.492+114.986+715.76+112.3+715.76+108.986L715.76+102.986C715.76+106.3+709.492+108.986+701.76+108.986C694.028+108.986+687.76+106.3+687.76+102.986Z" opacity="1" fill="#000000"/>
<path d="M687.76+92.986L687.76+98.986C687.76+102.3+694.028+104.986+701.76+104.986C709.492+104.986+715.76+102.3+715.76+98.986L715.76+92.986C715.76+96.3+709.492+98.986+701.76+98.986C694.028+98.986+687.76+96.3+687.76+92.986Z" opacity="1" fill="#000000"/>
<path d="M715.76+88.986C715.76+92.3+709.492+94.986+701.76+94.986C694.028+94.986+687.76+92.3+687.76+88.986C687.76+85.672+694.028+82.986+701.76+82.986C709.492+82.986+715.76+85.672+715.76+88.986Z" opacity="1" fill="#000000"/>
<path d="M685.605+161.428L685.605+167.428C685.605+170.742+691.873+173.428+699.605+173.428C707.337+173.428+713.605+170.742+713.605+167.428L713.605+161.428C713.605+164.742+707.337+167.428+699.605+167.428C691.873+167.428+685.605+164.742+685.605+161.428Z" opacity="1" fill="#000000"/>
<path d="M685.605+151.428L685.605+157.428C685.605+160.742+691.873+163.428+699.605+163.428C707.337+163.428+713.605+160.742+713.605+157.428L713.605+151.428C713.605+154.742+707.337+157.428+699.605+157.428C691.873+157.428+685.605+154.742+685.605+151.428Z" opacity="1" fill="#000000"/>
<path d="M713.605+147.428C713.605+150.742+707.337+153.428+699.605+153.428C691.873+153.428+685.605+150.742+685.605+147.428C685.605+144.114+691.873+141.428+699.605+141.428C707.337+141.428+713.605+144.114+713.605+147.428Z" opacity="1" fill="#000000"/>
<g opacity="1">
<path d="M544.17+52.9883C544.991+52.9883+545.64+52.8242+546.117+52.4961C546.595+52.168+546.833+51.5762+546.833+50.7207C546.833+49.8008+546.499+49.1738+545.831+48.8398C545.474+48.6641+544.997+48.5762+544.399+48.5762L540.127+48.5762L540.127+52.9883L544.17+52.9883ZM538.378+47.0732L544.355+47.0732C545.339+47.0732+546.151+47.2168+546.79+47.5039C548.002+48.0547+548.609+49.0713+548.609+50.5537C548.609+51.3271+548.449+51.9599+548.13+52.4521C547.81+52.9443+547.364+53.3398+546.79+53.6387C547.293+53.8437+547.673+54.1133+547.928+54.4473C548.183+54.7812+548.325+55.3232+548.354+56.0732L548.415+57.8047C548.433+58.2969+548.474+58.6631+548.539+58.9033C548.644+59.3135+548.831+59.5771+549.101+59.6943L549.101+59.9844L546.956+59.9844C546.898+59.873+546.851+59.7295+546.816+59.5537C546.781+59.3779+546.751+59.0381+546.728+58.5342L546.623+56.3808C546.581+55.5371+546.268+54.9717+545.682+54.6846C545.348+54.5264+544.824+54.4473+544.109+54.4473L540.127+54.4473L540.127+59.9844L538.378+59.9844L538.378+47.0732Z" opacity="1" fill="#ba2a2a"/>
<path d="M554.875+50.3603C555.543+50.3603+556.191+50.5171+556.818+50.8306C557.445+51.144+557.922+51.5498+558.25+52.0478C558.567+52.5224+558.778+53.0762+558.883+53.709C558.977+54.1426+559.024+54.834+559.024+55.7832L552.124+55.7832C552.154+56.7383+552.379+57.5044+552.801+58.0815C553.223+58.6587+553.876+58.9473+554.761+58.9473C555.587+58.9473+556.247+58.6748+556.739+58.1299C557.02+57.8135+557.219+57.4473+557.336+57.0312L558.892+57.0312C558.851+57.3769+558.715+57.7622+558.483+58.187C558.252+58.6118+557.993+58.959+557.706+59.2285C557.225+59.6973+556.63+60.0137+555.921+60.1777C555.54+60.2715+555.11+60.3183+554.629+60.3183C553.457+60.3183+552.464+59.8921+551.65+59.0395C550.835+58.187+550.428+56.9932+550.428+55.458C550.428+53.9463+550.838+52.7187+551.659+51.7754C552.479+50.832+553.551+50.3603+554.875+50.3603ZM557.398+54.5264C557.333+53.8408+557.184+53.293+556.95+52.8828C556.516+52.1211+555.792+51.7402+554.779+51.7402C554.052+51.7402+553.443+52.0024+552.951+52.5268C552.458+53.0513+552.198+53.7178+552.168+54.5264L557.398+54.5264Z" opacity="1" fill="#ba2a2a"/>
<path d="M561.907+57.0312C561.954+57.5586+562.085+57.9629+562.302+58.2441C562.701+58.7539+563.392+59.0088+564.376+59.0088C564.962+59.0088+565.478+58.8813+565.923+58.6265C566.369+58.3716+566.591+57.9775+566.591+57.4443C566.591+57.04+566.413+56.7324+566.055+56.5215C565.827+56.3926+565.375+56.2432+564.702+56.0732L563.445+55.7568C562.642+55.5576+562.05+55.3349+561.669+55.0889C560.99+54.6611+560.65+54.0693+560.65+53.3135C560.65+52.4228+560.971+51.7021+561.612+51.1514C562.254+50.6006+563.117+50.3252+564.201+50.3252C565.619+50.3252+566.641+50.7412+567.268+51.5732C567.661+52.1006+567.851+52.6689+567.839+53.2783L566.345+53.2783C566.316+52.9209+566.19+52.5957+565.967+52.3027C565.604+51.8867+564.974+51.6787+564.078+51.6787C563.48+51.6787+563.027+51.793+562.72+52.0215C562.412+52.25+562.258+52.5517+562.258+52.9267C562.258+53.3369+562.46+53.665+562.865+53.9111C563.099+54.0576+563.445+54.1865+563.902+54.2978L564.948+54.5527C566.084+54.8281+566.846+55.0947+567.233+55.3525C567.848+55.7568+568.156+56.3926+568.156+57.2598C568.156+58.0976+567.838+58.8213+567.202+59.4307C566.566+60.04+565.598+60.3447+564.297+60.3447C562.897+60.3447+561.905+60.0268+561.322+59.3911C560.739+58.7554+560.427+57.9687+560.386+57.0312L561.907+57.0312Z" opacity="1" fill="#ba2a2a"/>
<path d="M570.283+47.9433L571.882+47.9433L571.882+50.5713L573.385+50.5713L573.385+51.8633L571.882+51.8633L571.882+58.0068C571.882+58.3349+571.994+58.5547+572.216+58.666C572.339+58.7305+572.544+58.7627+572.831+58.7627C572.908+58.7627+572.99+58.7612+573.078+58.7583C573.165+58.7554+573.268+58.748+573.385+58.7363L573.385+59.9844C573.204+60.0371+573.015+60.0752+572.818+60.0986C572.622+60.1221+572.41+60.1338+572.181+60.1338C571.443+60.1338+570.942+59.9448+570.678+59.5669C570.415+59.189+570.283+58.6982+570.283+58.0947L570.283+51.8633L569.008+51.8633L569.008+50.5713L570.283+50.5713L570.283+47.9433Z" opacity="1" fill="#ba2a2a"/>
<path d="M578.887+50.3603C579.555+50.3603+580.203+50.5171+580.83+50.8306C581.456+51.144+581.934+51.5498+582.262+52.0478C582.579+52.5224+582.79+53.0762+582.895+53.709C582.989+54.1426+583.036+54.834+583.036+55.7832L576.136+55.7832C576.165+56.7383+576.391+57.5044+576.813+58.0815C577.235+58.6587+577.888+58.9473+578.773+58.9473C579.599+58.9473+580.258+58.6748+580.75+58.1299C581.032+57.8135+581.231+57.4473+581.348+57.0312L582.904+57.0312C582.863+57.3769+582.727+57.7622+582.495+58.187C582.264+58.6118+582.004+58.959+581.717+59.2285C581.237+59.6973+580.642+60.0137+579.933+60.1777C579.552+60.2715+579.122+60.3183+578.641+60.3183C577.469+60.3183+576.476+59.8921+575.662+59.0395C574.847+58.187+574.44+56.9932+574.44+55.458C574.44+53.9463+574.85+52.7187+575.67+51.7754C576.491+50.832+577.563+50.3603+578.887+50.3603ZM581.41+54.5264C581.345+53.8408+581.196+53.293+580.961+52.8828C580.528+52.1211+579.804+51.7402+578.79+51.7402C578.064+51.7402+577.455+52.0024+576.962+52.5268C576.47+53.0513+576.209+53.7178+576.18+54.5264L581.41+54.5264Z" opacity="1" fill="#ba2a2a"/>
<path d="M590.981+55.3877C590.981+56.3955+591.195+57.2392+591.623+57.9189C592.05+58.5986+592.736+58.9385+593.679+58.9385C594.412+58.9385+595.014+58.6235+595.485+57.9936C595.957+57.3638+596.193+56.4599+596.193+55.2822C596.193+54.0928+595.95+53.2124+595.463+52.6411C594.977+52.0698+594.376+51.7842+593.662+51.7842C592.865+51.7842+592.219+52.0889+591.724+52.6982C591.228+53.3076+590.981+54.2041+590.981+55.3877ZM593.363+50.4043C594.083+50.4043+594.687+50.5566+595.173+50.8613C595.455+51.0371+595.774+51.3447+596.131+51.7842L596.131+47.0293L597.652+47.0293L597.652+59.9844L596.228+59.9844L596.228+58.6748C595.859+59.2549+595.422+59.6738+594.918+59.9316C594.415+60.1894+593.837+60.3183+593.187+60.3183C592.138+60.3183+591.23+59.8774+590.462+58.9956C589.695+58.1138+589.311+56.9404+589.311+55.4756C589.311+54.1045+589.661+52.9165+590.361+51.9116C591.061+50.9067+592.062+50.4043+593.363+50.4043Z" opacity="1" fill="#ba2a2a"/>
<path d="M603.91+50.3603C604.578+50.3603+605.225+50.5171+605.852+50.8306C606.479+51.144+606.956+51.5498+607.285+52.0478C607.601+52.5224+607.812+53.0762+607.917+53.709C608.011+54.1426+608.058+54.834+608.058+55.7832L601.159+55.7832C601.188+56.7383+601.414+57.5044+601.835+58.0815C602.257+58.6587+602.911+58.9473+603.795+58.9473C604.622+58.9473+605.281+58.6748+605.773+58.1299C606.054+57.8135+606.253+57.4473+606.371+57.0312L607.926+57.0312C607.885+57.3769+607.749+57.7622+607.518+58.187C607.286+58.6118+607.027+58.959+606.74+59.2285C606.259+59.6973+605.665+60.0137+604.956+60.1777C604.575+60.2715+604.144+60.3183+603.664+60.3183C602.492+60.3183+601.498+59.8921+600.684+59.0395C599.87+58.187+599.462+56.9932+599.462+55.458C599.462+53.9463+599.873+52.7187+600.693+51.7754C601.513+50.832+602.585+50.3603+603.91+50.3603ZM606.432+54.5264C606.368+53.8408+606.218+53.293+605.984+52.8828C605.55+52.1211+604.827+51.7402+603.813+51.7402C603.086+51.7402+602.477+52.0024+601.985+52.5268C601.493+53.0513+601.232+53.7178+601.203+54.5264L606.432+54.5264Z" opacity="1" fill="#ba2a2a"/>
<path d="M615.045+47.0732L616.627+47.0732L616.627+59.9844L615.045+59.9844L615.045+47.0732Z" opacity="1" fill="#ba2a2a"/>
<path d="M620.213+57.4795C620.213+57.9365+620.38+58.2969+620.714+58.5605C621.048+58.8242+621.444+58.956+621.901+58.956C622.457+58.956+622.997+58.8271+623.518+58.5693C624.397+58.1416+624.836+57.4414+624.836+56.4687L624.836+55.1943C624.643+55.3174+624.394+55.4199+624.089+55.5019C623.785+55.584+623.486+55.6426+623.193+55.6777L622.235+55.8008C621.661+55.8769+621.23+55.9971+620.943+56.1611C620.456+56.4365+620.213+56.876+620.213+57.4795ZM624.045+54.2803C624.409+54.2334+624.652+54.081+624.775+53.8232C624.845+53.6826+624.88+53.4805+624.88+53.2168C624.88+52.6777+624.688+52.2866+624.305+52.0434C623.921+51.8003+623.372+51.6787+622.657+51.6787C621.831+51.6787+621.245+51.9014+620.899+52.3467C620.706+52.5928+620.58+52.959+620.521+53.4453L619.044+53.4453C619.074+52.2851+619.45+51.478+620.174+51.0239C620.897+50.5698+621.737+50.3428+622.692+50.3428C623.799+50.3428+624.699+50.5537+625.39+50.9756C626.076+51.3974+626.418+52.0537+626.418+52.9443L626.418+58.3672C626.418+58.5312+626.452+58.6631+626.519+58.7627C626.587+58.8623+626.729+58.9121+626.946+58.9121C627.016+58.9121+627.095+58.9077+627.183+58.8989C627.271+58.8901+627.365+58.8769+627.464+58.8594L627.464+60.0283C627.218+60.0986+627.031+60.1426+626.902+60.1601C626.773+60.1777+626.597+60.1865+626.374+60.1865C625.83+60.1865+625.434+59.9932+625.188+59.6064C625.059+59.4014+624.968+59.1113+624.915+58.7363C624.593+59.1582+624.13+59.5244+623.527+59.8349C622.923+60.1455+622.258+60.3008+621.532+60.3008C620.659+60.3008+619.945+60.0356+619.392+59.5054C618.838+58.9751+618.561+58.3115+618.561+57.5146C618.561+56.6416+618.833+55.9648+619.378+55.4844C619.923+55.0039+620.638+54.708+621.523+54.5967L624.045+54.2803Z" opacity="1" fill="#ba2a2a"/>
<path d="M634.953+57.0312C634.999+57.5586+635.131+57.9629+635.348+58.2441C635.747+58.7539+636.438+59.0088+637.422+59.0088C638.008+59.0088+638.524+58.8813+638.969+58.6265C639.415+58.3716+639.637+57.9775+639.637+57.4443C639.637+57.04+639.458+56.7324+639.101+56.5215C638.873+56.3926+638.421+56.2432+637.748+56.0732L636.491+55.7568C635.688+55.5576+635.096+55.3349+634.715+55.0889C634.036+54.6611+633.696+54.0693+633.696+53.3135C633.696+52.4228+634.017+51.7021+634.658+51.1514C635.3+50.6006+636.163+50.3252+637.247+50.3252C638.665+50.3252+639.687+50.7412+640.314+51.5732C640.706+52.1006+640.897+52.6689+640.885+53.2783L639.391+53.2783C639.362+52.9209+639.236+52.5957+639.013+52.3027C638.65+51.8867+638.02+51.6787+637.123+51.6787C636.526+51.6787+636.073+51.793+635.766+52.0215C635.458+52.25+635.304+52.5517+635.304+52.9267C635.304+53.3369+635.506+53.665+635.911+53.9111C636.145+54.0576+636.491+54.1865+636.948+54.2978L637.994+54.5527C639.13+54.8281+639.892+55.0947+640.279+55.3525C640.894+55.7568+641.202+56.3926+641.202+57.2598C641.202+58.0976+640.884+58.8213+640.248+59.4307C639.612+60.04+638.644+60.3447+637.343+60.3447C635.943+60.3447+634.951+60.0268+634.368+59.3911C633.785+58.7554+633.473+57.9687+633.432+57.0312L634.953+57.0312Z" opacity="1" fill="#ba2a2a"/>
<path d="M646.748+58.9648C647.796+58.9648+648.516+58.5679+648.905+57.7739C649.295+56.98+649.49+56.0967+649.49+55.124C649.49+54.2451+649.349+53.5303+649.068+52.9795C648.623+52.1123+647.855+51.6787+646.765+51.6787C645.798+51.6787+645.095+52.0478+644.656+52.7861C644.216+53.5244+643.997+54.415+643.997+55.458C643.997+56.4599+644.216+57.2949+644.656+57.9629C645.095+58.6308+645.792+58.9648+646.748+58.9648ZM646.809+50.2988C648.022+50.2988+649.047+50.7031+649.885+51.5117C650.723+52.3203+651.142+53.5098+651.142+55.0801C651.142+56.5976+650.773+57.8516+650.035+58.8418C649.296+59.832+648.151+60.3271+646.598+60.3271C645.303+60.3271+644.275+59.8891+643.513+59.0132C642.751+58.1372+642.371+56.9609+642.371+55.4844C642.371+53.9023+642.772+52.6426+643.575+51.7051C644.377+50.7676+645.456+50.2988+646.809+50.2988Z" opacity="1" fill="#ba2a2a"/>
<path d="M653.067+47.0732L654.649+47.0732L654.649+59.9844L653.067+59.9844L653.067+47.0732Z" opacity="1" fill="#ba2a2a"/>
<path d="M658.604+50.5713L658.604+56.8203C658.604+57.3008+658.68+57.6933+658.832+57.998C659.114+58.5605+659.638+58.8418+660.406+58.8418C661.507+58.8418+662.257+58.3496+662.656+57.3652C662.873+56.8379+662.981+56.1142+662.981+55.1943L662.981+50.5713L664.563+50.5713L664.563+59.9844L663.069+59.9844L663.086+58.5957C662.881+58.9531+662.626+59.2549+662.322+59.501C661.718+59.9932+660.986+60.2392+660.124+60.2392C658.783+60.2392+657.869+59.791+657.382+58.8945C657.119+58.4141+656.987+57.7724+656.987+56.9697L656.987+50.5713L658.604+50.5713Z" opacity="1" fill="#ba2a2a"/>
<path d="M667.349+47.9433L668.949+47.9433L668.949+50.5713L670.452+50.5713L670.452+51.8633L668.949+51.8633L668.949+58.0068C668.949+58.3349+669.06+58.5547+669.283+58.666C669.406+58.7305+669.611+58.7627+669.898+58.7627C669.974+58.7627+670.056+58.7612+670.144+58.7583C670.232+58.7554+670.334+58.748+670.452+58.7363L670.452+59.9844C670.27+60.0371+670.081+60.0752+669.885+60.0986C669.688+60.1221+669.476+60.1338+669.248+60.1338C668.509+60.1338+668.008+59.9448+667.745+59.5669C667.481+59.189+667.349+58.6982+667.349+58.0947L667.349+51.8633L666.075+51.8633L666.075+50.5713L667.349+50.5713L667.349+47.9433Z" opacity="1" fill="#ba2a2a"/>
<path d="M672.034+50.6152L673.642+50.6152L673.642+59.9844L672.034+59.9844L672.034+50.6152ZM672.034+47.0732L673.642+47.0732L673.642+48.8662L672.034+48.8662L672.034+47.0732Z" opacity="1" fill="#ba2a2a"/>
<path d="M679.768+58.9648C680.817+58.9648+681.536+58.5679+681.926+57.7739C682.315+56.98+682.51+56.0967+682.51+55.124C682.51+54.2451+682.37+53.5303+682.088+52.9795C681.643+52.1123+680.875+51.6787+679.786+51.6787C678.819+51.6787+678.116+52.0478+677.676+52.7861C677.237+53.5244+677.017+54.415+677.017+55.458C677.017+56.4599+677.237+57.2949+677.676+57.9629C678.116+58.6308+678.813+58.9648+679.768+58.9648ZM679.83+50.2988C681.042+50.2988+682.068+50.7031+682.906+51.5117C683.744+52.3203+684.163+53.5098+684.163+55.0801C684.163+56.5976+683.793+57.8516+683.055+58.8418C682.317+59.832+681.171+60.3271+679.619+60.3271C678.324+60.3271+677.295+59.8891+676.534+59.0132C675.772+58.1372+675.391+56.9609+675.391+55.4844C675.391+53.9023+675.792+52.6426+676.595+51.7051C677.398+50.7676+678.476+50.2988+679.83+50.2988Z" opacity="1" fill="#ba2a2a"/>
<path d="M686.043+50.5713L687.546+50.5713L687.546+51.9072C687.992+51.3564+688.463+50.9609+688.961+50.7207C689.459+50.4805+690.013+50.3603+690.623+50.3603C691.958+50.3603+692.861+50.8262+693.33+51.7578C693.587+52.2676+693.716+52.9971+693.716+53.9463L693.716+59.9844L692.108+59.9844L692.108+54.0517C692.108+53.4775+692.023+53.0146+691.853+52.6631C691.572+52.0771+691.062+51.7842+690.324+51.7842C689.949+51.7842+689.641+51.8223+689.401+51.8984C688.967+52.0273+688.586+52.2851+688.258+52.6719C687.995+52.9824+687.823+53.3032+687.744+53.6343C687.665+53.9653+687.625+54.4385+687.625+55.0537L687.625+59.9844L686.043+59.9844L686.043+50.5713Z" opacity="1" fill="#ba2a2a"/>
</g>
<path stroke="#388e3c" stroke-width="2" d="M34.9289+67.8176L150.932+67.8176C152.325+67.8176+153.454+69.9074+153.454+72.4853L153.454+209.144C153.454+211.722+152.325+213.812+150.932+213.812L34.9289+213.812C33.536+213.812+32.4068+211.722+32.4068+209.144L32.4068+72.4853C32.4068+69.9074+33.536+67.8176+34.9289+67.8176Z" fill="none" stroke-linecap="round" opacity="1" stroke-linejoin="round"/>
<g opacity="1">
<path d="M53.5533+86.4533L62.5093+86.4533L62.5093+88.0354L55.3023+88.0354L55.3023+91.9553L61.6392+91.9553L61.6392+93.4934L55.3023+93.4934L55.3023+99.3645L53.5533+99.3645L53.5533+86.4533Z" opacity="1" fill="#388e3c"/>
<path d="M64.2144+89.9514L65.7174+89.9514L65.7174+91.5773C65.8404+91.2609+66.1422+90.8757+66.6226+90.4216C67.1031+89.9675+67.6568+89.7404+68.2838+89.7404C68.3131+89.7404+68.3629+89.7434+68.4332+89.7492C68.5035+89.7551+68.6236+89.7668+68.7935+89.7844L68.7935+91.4543C68.6998+91.4367+68.6133+91.425+68.5342+91.4191C68.4551+91.4133+68.3687+91.4104+68.275+91.4104C67.4781+91.4104+66.8658+91.6667+66.4381+92.1794C66.0103+92.6921+65.7965+93.2824+65.7965+93.9504L65.7965+99.3645L64.2144+99.3645L64.2144+89.9514Z" opacity="1" fill="#388e3c"/>
<path d="M73.9+98.3449C74.9488+98.3449+75.668+97.9479+76.0577+97.154C76.4473+96.3601+76.6422+95.4768+76.6422+94.5041C76.6422+93.6252+76.5015+92.9104+76.2203+92.3596C75.775+91.4924+75.0074+91.0588+73.9175+91.0588C72.9507+91.0588+72.2476+91.4279+71.8082+92.1662C71.3687+92.9045+71.149+93.7951+71.149+94.8381C71.149+95.84+71.3687+96.675+71.8082+97.343C72.2476+98.0109+72.9449+98.3449+73.9+98.3449ZM73.9615+89.6789C75.1744+89.6789+76.1998+90.0832+77.0377+90.8918C77.8756+91.7004+78.2945+92.8898+78.2945+94.4602C78.2945+95.9777+77.9254+97.2316+77.1871+98.2219C76.4488+99.2121+75.3033+99.7072+73.7506+99.7072C72.4556+99.7072+71.4273+99.2692+70.6656+98.3933C69.9039+97.5173+69.523+96.341+69.523+94.8645C69.523+93.2824+69.9244+92.0227+70.7271+91.0852C71.5299+90.1477+72.608+89.6789+73.9615+89.6789Z" opacity="1" fill="#388e3c"/>
<path d="M80.1754+89.9514L81.6783+89.9514L81.6783+91.2873C82.1236+90.7365+82.5953+90.341+83.0933+90.1008C83.5914+89.8605+84.1451+89.7404+84.7545+89.7404C86.0904+89.7404+86.9927+90.2063+87.4615+91.1379C87.7193+91.6477+87.8482+92.3771+87.8482+93.3264L87.8482+99.3645L86.2398+99.3645L86.2398+93.4318C86.2398+92.8576+86.1549+92.3947+85.9849+92.0432C85.7037+91.4572+85.1939+91.1643+84.4556+91.1643C84.0806+91.1643+83.773+91.2023+83.5328+91.2785C83.0992+91.4074+82.7183+91.6652+82.3902+92.052C82.1265+92.3625+81.9551+92.6833+81.876+93.0144C81.7969+93.3454+81.7574+93.8186+81.7574+94.4338L81.7574+99.3645L80.1754+99.3645L80.1754+89.9514Z" opacity="1" fill="#388e3c"/>
<path d="M90.5025+87.3234L92.1021+87.3234L92.1021+89.9514L93.605+89.9514L93.605+91.2434L92.1021+91.2434L92.1021+97.3869C92.1021+97.715+92.2134+97.9348+92.4361+98.0461C92.5591+98.1105+92.7642+98.1428+93.0513+98.1428C93.1275+98.1428+93.2095+98.1413+93.2974+98.1384C93.3853+98.1354+93.4879+98.1281+93.605+98.1164L93.605+99.3645C93.4234+99.4172+93.2344+99.4553+93.0382+99.4787C92.8419+99.5021+92.6295+99.5139+92.4009+99.5139C91.6627+99.5139+91.1617+99.3249+90.898+98.947C90.6343+98.569+90.5025+98.0783+90.5025+97.4748L90.5025+91.2434L89.2281+91.2434L89.2281+89.9514L90.5025+89.9514L90.5025+87.3234Z" opacity="1" fill="#388e3c"/>
<path d="M94.774+93.5373L99.1861+93.5373L99.1861+95.1633L94.774+95.1633L94.774+93.5373Z" opacity="1" fill="#388e3c"/>
<path d="M105.101+89.7404C105.769+89.7404+106.417+89.8972+107.044+90.2106C107.67+90.5241+108.148+90.9299+108.476+91.4279C108.793+91.9025+109.003+92.4563+109.109+93.0891C109.203+93.5227+109.25+94.2141+109.25+95.1633L102.35+95.1633C102.379+96.1184+102.605+96.8845+103.027+97.4616C103.449+98.0388+104.102+98.3273+104.987+98.3273C105.813+98.3273+106.472+98.0549+106.964+97.51C107.246+97.1936+107.445+96.8273+107.562+96.4113L109.118+96.4113C109.077+96.757+108.94+97.1423+108.709+97.5671C108.478+97.9919+108.218+98.3391+107.931+98.6086C107.451+99.0773+106.856+99.3938+106.147+99.5578C105.766+99.6516+105.336+99.6984+104.855+99.6984C103.683+99.6984+102.69+99.2722+101.876+98.4196C101.061+97.5671+100.654+96.3732+100.654+94.8381C100.654+93.3264+101.064+92.0988+101.884+91.1555C102.705+90.2121+103.777+89.7404+105.101+89.7404ZM107.624+93.9064C107.559+93.2209+107.41+92.673+107.175+92.2629C106.742+91.5012+106.018+91.1203+105.004+91.1203C104.278+91.1203+103.669+91.3825+103.176+91.9069C102.684+92.4313+102.423+93.0979+102.394+93.9064L107.624+93.9064Z" opacity="1" fill="#388e3c"/>
<path d="M111.192+89.9514L112.695+89.9514L112.695+91.2873C113.14+90.7365+113.612+90.341+114.11+90.1008C114.608+89.8605+115.162+89.7404+115.771+89.7404C117.107+89.7404+118.009+90.2063+118.478+91.1379C118.736+91.6477+118.865+92.3771+118.865+93.3264L118.865+99.3645L117.256+99.3645L117.256+93.4318C117.256+92.8576+117.171+92.3947+117.002+92.0432C116.72+91.4572+116.211+91.1643+115.472+91.1643C115.097+91.1643+114.79+91.2023+114.549+91.2785C114.116+91.4074+113.735+91.6652+113.407+92.052C113.143+92.3625+112.972+92.6833+112.893+93.0144C112.814+93.3454+112.774+93.8186+112.774+94.4338L112.774+99.3645L111.192+99.3645L111.192+89.9514Z" opacity="1" fill="#388e3c"/>
<path d="M122.205+94.7678C122.205+95.7756+122.419+96.6193+122.846+97.299C123.274+97.9787+123.96+98.3186+124.903+98.3186C125.635+98.3186+126.237+98.0036+126.709+97.3737C127.181+96.7438+127.417+95.84+127.417+94.6623C127.417+93.4729+127.173+92.5925+126.687+92.0212C126.201+91.4499+125.6+91.1643+124.885+91.1643C124.088+91.1643+123.442+91.4689+122.947+92.0783C122.452+92.6877+122.205+93.5842+122.205+94.7678ZM124.586+89.7844C125.307+89.7844+125.911+89.9367+126.397+90.2414C126.678+90.4172+126.998+90.7248+127.355+91.1643L127.355+86.4094L128.876+86.4094L128.876+99.3645L127.452+99.3645L127.452+98.0549C127.083+98.635+126.646+99.0539+126.142+99.3117C125.638+99.5695+125.061+99.6984+124.411+99.6984C123.362+99.6984+122.454+99.2575+121.686+98.3757C120.919+97.4938+120.535+96.3205+120.535+94.8557C120.535+93.4846+120.885+92.2966+121.585+91.2917C122.285+90.2868+123.286+89.7844+124.586+89.7844Z" opacity="1" fill="#388e3c"/>
</g>
<path stroke="#000000" stroke-width="2" d="M21.3843+13.3866L394.334+13.3866C398.753+13.3866+402.334+16.5089+402.334+20.3604L402.334+244.313C402.334+248.165+398.753+251.287+394.334+251.287L21.3843+251.287C16.966+251.287+13.3843+248.165+13.3843+244.313L13.3843+20.3604C13.3843+16.5089+16.966+13.3866+21.3843+13.3866Z" fill="none" stroke-linecap="round" opacity="1" stroke-linejoin="round"/>
<g opacity="1">
<path d="M29.2395+22.9436L31.305+22.9436L37.8265+33.4026L37.8265+22.9436L39.4876+22.9436L39.4876+35.8547L37.5276+35.8547L30.9095+25.4045L30.9095+35.8547L29.2395+35.8547L29.2395+22.9436Z" opacity="1" fill="#000000"/>
<path d="M43.2405+33.3499C43.2405+33.8069+43.4075+34.1672+43.7415+34.4309C44.0755+34.6946+44.471+34.8264+44.928+34.8264C45.4847+34.8264+46.0237+34.6975+46.5452+34.4397C47.4241+34.012+47.8636+33.3118+47.8636+32.3391L47.8636+31.0647C47.6702+31.1877+47.4212+31.2903+47.1165+31.3723C46.8118+31.4543+46.513+31.5129+46.22+31.5481L45.262+31.6711C44.6878+31.7473+44.2571+31.8674+43.97+32.0315C43.4837+32.3069+43.2405+32.7463+43.2405+33.3499ZM47.0726+30.1506C47.4358+30.1038+47.679+29.9514+47.802+29.6936C47.8724+29.553+47.9075+29.3508+47.9075+29.0872C47.9075+28.5481+47.7156+28.157+47.3318+27.9138C46.948+27.6707+46.3987+27.5491+45.6839+27.5491C44.8577+27.5491+44.2718+27.7717+43.9261+28.217C43.7327+28.4631+43.6067+28.8293+43.5481+29.3157L42.0716+29.3157C42.1009+28.1555+42.4773+27.3484+43.201+26.8943C43.9246+26.4402+44.764+26.2131+45.719+26.2131C46.8265+26.2131+47.7259+26.4241+48.4173+26.8459C49.1028+27.2678+49.4456+27.9241+49.4456+28.8147L49.4456+34.2376C49.4456+34.4016+49.4793+34.5334+49.5467+34.6331C49.6141+34.7327+49.7561+34.7825+49.9729+34.7825C50.0433+34.7825+50.1224+34.7781+50.2102+34.7693C50.2981+34.7605+50.3919+34.7473+50.4915+34.7297L50.4915+35.8987C50.2454+35.969+50.0579+36.0129+49.929+36.0305C49.8001+36.0481+49.6243+36.0569+49.4017+36.0569C48.8567+36.0569+48.4612+35.8635+48.2151+35.4768C48.0862+35.2717+47.9954+34.9817+47.9427+34.6067C47.6204+35.0286+47.1575+35.3948+46.554+35.7053C45.9505+36.0159+45.2854+36.1711+44.5589+36.1711C43.6858+36.1711+42.9725+35.906+42.4187+35.3757C41.865+34.8455+41.5882+34.1819+41.5882+33.385C41.5882+32.512+41.8606+31.8352+42.4056+31.3547C42.9505+30.8743+43.6653+30.5784+44.5501+30.467L47.0726+30.1506Z" opacity="1" fill="#000000"/>
<path d="M52.8118+26.4417L55.3255+34.1057L57.9534+26.4417L59.6849+26.4417L56.1341+35.8547L54.4466+35.8547L50.9749+26.4417L52.8118+26.4417Z" opacity="1" fill="#000000"/>
<path d="M61.0384+26.4856L62.6468+26.4856L62.6468+35.8547L61.0384+35.8547L61.0384+26.4856ZM61.0384+22.9436L62.6468+22.9436L62.6468+24.7366L61.0384+24.7366L61.0384+22.9436Z" opacity="1" fill="#000000"/>
<path d="M68.3597+26.2747C69.0979+26.2747+69.7425+26.4563+70.2933+26.8196C70.5921+27.0247+70.8968+27.3235+71.2073+27.7161L71.2073+26.5295L72.6663+26.5295L72.6663+35.0901C72.6663+36.2854+72.4905+37.2288+72.139+37.9202C71.4827+39.1975+70.2435+39.8362+68.4212+39.8362C67.4075+39.8362+66.555+39.6091+65.8636+39.155C65.1722+38.7009+64.7854+37.9905+64.7034+37.0237L66.3118+37.0237C66.388+37.4456+66.5403+37.7708+66.7688+37.9993C67.1263+38.3508+67.6888+38.5266+68.4563+38.5266C69.6692+38.5266+70.4632+38.0989+70.8382+37.2434C71.0608+36.7395+71.1634+35.8401+71.1458+34.5452C70.8294+35.0256+70.4485+35.3831+70.0032+35.6174C69.5579+35.8518+68.969+35.969+68.2366+35.969C67.2171+35.969+66.325+35.6072+65.5603+34.8835C64.7957+34.1599+64.4134+32.9631+64.4134+31.2932C64.4134+29.717+64.7986+28.4866+65.5691+27.6018C66.3396+26.717+67.2698+26.2747+68.3597+26.2747ZM71.2073+31.1086C71.2073+29.9426+70.9671+29.0784+70.4866+28.5159C70.0061+27.9534+69.3938+27.6721+68.6497+27.6721C67.5364+27.6721+66.7747+28.1936+66.3645+29.2366C66.1477+29.7932+66.0393+30.5227+66.0393+31.4251C66.0393+32.4856+66.2547+33.2927+66.6853+33.8464C67.116+34.4001+67.6946+34.677+68.4212+34.677C69.5579+34.677+70.3577+34.1643+70.8206+33.1389C71.0784+32.5588+71.2073+31.8821+71.2073+31.1086Z" opacity="1" fill="#000000"/>
<path d="M76.261+33.3499C76.261+33.8069+76.428+34.1672+76.762+34.4309C77.096+34.6946+77.4915+34.8264+77.9485+34.8264C78.5052+34.8264+79.0442+34.6975+79.5657+34.4397C80.4446+34.012+80.8841+33.3118+80.8841+32.3391L80.8841+31.0647C80.6907+31.1877+80.4417+31.2903+80.137+31.3723C79.8323+31.4543+79.5335+31.5129+79.2405+31.5481L78.2825+31.6711C77.7083+31.7473+77.2776+31.8674+76.9905+32.0315C76.5042+32.3069+76.261+32.7463+76.261+33.3499ZM80.0931+30.1506C80.4563+30.1038+80.6995+29.9514+80.8226+29.6936C80.8929+29.553+80.928+29.3508+80.928+29.0872C80.928+28.5481+80.7361+28.157+80.3523+27.9138C79.9685+27.6707+79.4192+27.5491+78.7044+27.5491C77.8782+27.5491+77.2923+27.7717+76.9466+28.217C76.7532+28.4631+76.6272+28.8293+76.5686+29.3157L75.0921+29.3157C75.1214+28.1555+75.4978+27.3484+76.2215+26.8943C76.9451+26.4402+77.7845+26.2131+78.7395+26.2131C79.847+26.2131+80.7464+26.4241+81.4378+26.8459C82.1233+27.2678+82.4661+27.9241+82.4661+28.8147L82.4661+34.2376C82.4661+34.4016+82.4998+34.5334+82.5672+34.6331C82.6346+34.7327+82.7767+34.7825+82.9935+34.7825C83.0638+34.7825+83.1429+34.7781+83.2308+34.7693C83.3186+34.7605+83.4124+34.7473+83.512+34.7297L83.512+35.8987C83.2659+35.969+83.0784+36.0129+82.9495+36.0305C82.8206+36.0481+82.6448+36.0569+82.4222+36.0569C81.8772+36.0569+81.4817+35.8635+81.2356+35.4768C81.1067+35.2717+81.0159+34.9817+80.9632+34.6067C80.6409+35.0286+80.178+35.3948+79.5745+35.7053C78.971+36.0159+78.306+36.1711+77.5794+36.1711C76.7063+36.1711+75.993+35.906+75.4393+35.3757C74.8855+34.8455+74.6087+34.1819+74.6087+33.385C74.6087+32.512+74.8811+31.8352+75.4261+31.3547C75.971+30.8743+76.6858+30.5784+77.5706+30.467L80.0931+30.1506Z" opacity="1" fill="#000000"/>
<path d="M85.3753+23.8137L86.9749+23.8137L86.9749+26.4417L88.4778+26.4417L88.4778+27.7336L86.9749+27.7336L86.9749+33.8772C86.9749+34.2053+87.0862+34.4251+87.3089+34.5364C87.4319+34.6008+87.637+34.6331+87.9241+34.6331C88.0003+34.6331+88.0823+34.6316+88.1702+34.6287C88.2581+34.6257+88.3606+34.6184+88.4778+34.6067L88.4778+35.8547C88.2962+35.9075+88.1072+35.9456+87.9109+35.969C87.7146+35.9924+87.5022+36.0042+87.2737+36.0042C86.5354+36.0042+86.0345+35.8152+85.7708+35.4373C85.5071+35.0593+85.3753+34.5686+85.3753+33.9651L85.3753+27.7336L84.1009+27.7336L84.1009+26.4417L85.3753+26.4417L85.3753+23.8137Z" opacity="1" fill="#000000"/>
<path d="M93.9798+26.2307C94.6477+26.2307+95.2952+26.3875+95.9222+26.7009C96.5491+27.0144+97.0267+27.4202+97.3548+27.9182C97.6712+28.3928+97.8821+28.9465+97.9876+29.5793C98.0813+30.0129+98.1282+30.7043+98.1282+31.6536L91.2288+31.6536C91.2581+32.6086+91.4837+33.3748+91.9056+33.9519C92.3274+34.5291+92.9808+34.8176+93.8655+34.8176C94.6917+34.8176+95.3509+34.5452+95.8431+34.0002C96.1243+33.6838+96.3235+33.3176+96.4407+32.9016L97.9964+32.9016C97.9554+33.2473+97.8191+33.6326+97.5877+34.0574C97.3562+34.4822+97.097+34.8293+96.8099+35.0989C96.3294+35.5676+95.7347+35.884+95.0257+36.0481C94.6448+36.1418+94.2142+36.1887+93.7337+36.1887C92.5618+36.1887+91.5686+35.7625+90.7542+34.9099C89.9397+34.0574+89.5325+32.8635+89.5325+31.3284C89.5325+29.8167+89.9427+28.5891+90.763+27.6458C91.5833+26.7024+92.6556+26.2307+93.9798+26.2307ZM96.5022+30.3967C96.4378+29.7112+96.2884+29.1633+96.054+28.7532C95.6204+27.9915+94.8968+27.6106+93.8831+27.6106C93.1565+27.6106+92.5472+27.8728+92.055+28.3972C91.5628+28.9216+91.302+29.5881+91.2727+30.3967L96.5022+30.3967Z" opacity="1" fill="#000000"/>
<path d="M101.653+26.4417L101.653+32.6907C101.653+33.1711+101.729+33.5637+101.881+33.8684C102.162+34.4309+102.687+34.7122+103.454+34.7122C104.556+34.7122+105.306+34.22+105.704+33.2356C105.921+32.7083+106.03+31.9846+106.03+31.0647L106.03+26.4417L107.612+26.4417L107.612+35.8547L106.117+35.8547L106.135+34.4661C105.93+34.8235+105.675+35.1252+105.37+35.3713C104.767+35.8635+104.034+36.1096+103.173+36.1096C101.831+36.1096+100.917+35.6614+100.431+34.7649C100.167+34.2844+100.035+33.6428+100.035+32.8401L100.035+26.4417L101.653+26.4417Z" opacity="1" fill="#000000"/>
<path d="M110.125+26.4417L111.628+26.4417L111.628+28.0676C111.751+27.7512+112.053+27.366+112.533+26.9119C113.014+26.4578+113.568+26.2307+114.195+26.2307C114.224+26.2307+114.274+26.2336+114.344+26.2395C114.414+26.2454+114.534+26.2571+114.704+26.2747L114.704+27.9446C114.611+27.927+114.524+27.9153+114.445+27.9094C114.366+27.9036+114.28+27.9006+114.186+27.9006C113.389+27.9006+112.777+28.157+112.349+28.6697C111.921+29.1824+111.707+29.7727+111.707+30.4407L111.707+35.8547L110.125+35.8547L110.125+26.4417Z" opacity="1" fill="#000000"/>
</g>
<path stroke="#8e8e8e" stroke-width="2" d="M230.051+69.706L356.958+69.706C361.289+69.706+364.8+73.2171+364.8+77.5483L364.8+208.322C364.8+212.654+361.289+216.165+356.958+216.165L230.051+216.165C225.72+216.165+222.209+212.654+222.209+208.322L222.209+77.5483C222.209+73.2171+225.72+69.706+230.051+69.706Z" fill="none" stroke-linecap="round" opacity="1" stroke-linejoin="round"/>
<g opacity="1">
<path d="M265.683+84.1559C267.318+84.1559+268.586+84.5866+269.489+85.4479C270.391+86.3092+270.892+87.2878+270.992+88.3835L269.286+88.3835C269.093+87.5514+268.708+86.8922+268.131+86.4059C267.554+85.9196+266.743+85.6764+265.701+85.6764C264.429+85.6764+263.402+86.1232+262.62+87.0168C261.838+87.9103+261.447+89.2799+261.447+91.1256C261.447+92.6374+261.8+93.8634+262.506+94.8039C263.212+95.7443+264.265+96.2145+265.665+96.2145C266.954+96.2145+267.936+95.7194+268.61+94.7292C268.967+94.2077+269.234+93.5221+269.41+92.6725L271.115+92.6725C270.962+94.0319+270.458+95.1715+269.603+96.0915C268.577+97.1989+267.195+97.7526+265.454+97.7526C263.954+97.7526+262.695+97.2985+261.675+96.3903C260.333+95.1891+259.662+93.3346+259.662+90.8268C259.662+88.9225+260.166+87.361+261.174+86.1422C262.264+84.818+263.767+84.1559+265.683+84.1559Z" opacity="1" fill="#8e8e8e"/>
<path d="M278.91+88.0055L280.66+88.0055C280.437+88.609+279.942+89.986+279.174+92.1364C278.6+93.7536+278.119+95.0719+277.733+96.0915C276.819+98.4938+276.174+99.9587+275.799+100.486C275.424+101.013+274.78+101.277+273.866+101.277C273.643+101.277+273.472+101.268+273.351+101.251C273.231+101.233+273.083+101.201+272.908+101.154L272.908+99.7126C273.183+99.7887+273.382+99.8356+273.505+99.8532C273.628+99.8708+273.737+99.8795+273.83+99.8795C274.123+99.8795+274.339+99.8312+274.476+99.7345C274.614+99.6378+274.73+99.5192+274.824+99.3786C274.853+99.3317+274.958+99.0915+275.14+98.6579C275.322+98.2243+275.453+97.902+275.535+97.6911L272.055+88.0055L273.848+88.0055L276.37+95.6696L278.91+88.0055Z" opacity="1" fill="#8e8e8e"/>
<path d="M286.003+96.3551C286.742+96.3551+287.355+96.0461+287.845+95.4279C288.334+94.8097+288.578+93.8854+288.578+92.6549C288.578+91.9049+288.47+91.2604+288.253+90.7213C287.843+89.6842+287.093+89.1657+286.003+89.1657C284.908+89.1657+284.158+89.7135+283.753+90.8092C283.536+91.3952+283.428+92.1393+283.428+93.0417C283.428+93.7682+283.536+94.3864+283.753+94.8962C284.163+95.8688+284.913+96.3551+286.003+96.3551ZM281.908+88.0495L283.446+88.0495L283.446+89.2975C283.762+88.8698+284.108+88.5387+284.483+88.3044C285.016+87.9528+285.643+87.777+286.364+87.777C287.43+87.777+288.335+88.1857+289.079+89.0031C289.824+89.8205+290.196+90.9879+290.196+92.5055C290.196+94.5563+289.66+96.0212+288.587+96.9001C287.908+97.4567+287.117+97.735+286.214+97.735C285.505+97.735+284.91+97.5797+284.43+97.2692C284.149+97.0934+283.835+96.7917+283.49+96.3639L283.49+101.172L281.908+101.172L281.908+88.0495Z" opacity="1" fill="#8e8e8e"/>
<path d="M292.085+88.0055L293.588+88.0055L293.588+89.6315C293.711+89.3151+294.013+88.9298+294.493+88.4757C294.974+88.0216+295.528+87.7946+296.155+87.7946C296.184+87.7946+296.234+87.7975+296.304+87.8034C296.374+87.8092+296.494+87.821+296.664+87.8385L296.664+89.5085C296.571+89.4909+296.484+89.4792+296.405+89.4733C296.326+89.4674+296.24+89.4645+296.146+89.4645C295.349+89.4645+294.737+89.7209+294.309+90.2336C293.881+90.7462+293.667+91.3366+293.667+92.0045L293.667+97.4186L292.085+97.4186L292.085+88.0055Z" opacity="1" fill="#8e8e8e"/>
<path d="M301.955+87.7946C302.623+87.7946+303.271+87.9513+303.898+88.2648C304.525+88.5783+305.002+88.984+305.33+89.4821C305.647+89.9567+305.858+90.5104+305.963+91.1432C306.057+91.5768+306.104+92.2682+306.104+93.2174L299.204+93.2174C299.234+94.1725+299.459+94.9386+299.881+95.5158C300.303+96.0929+300.956+96.3815+301.841+96.3815C302.667+96.3815+303.327+96.109+303.819+95.5641C304.1+95.2477+304.299+94.8815+304.416+94.4655L305.972+94.4655C305.931+94.8112+305.795+95.1964+305.563+95.6212C305.332+96.0461+305.073+96.3932+304.785+96.6628C304.305+97.1315+303.71+97.4479+303.001+97.612C302.62+97.7057+302.19+97.7526+301.709+97.7526C300.537+97.7526+299.544+97.3263+298.73+96.4738C297.915+95.6212+297.508+94.4274+297.508+92.8922C297.508+91.3805+297.918+90.153+298.739+89.2096C299.559+88.2663+300.631+87.7946+301.955+87.7946ZM304.478+91.9606C304.413+91.2751+304.264+90.7272+304.03+90.317C303.596+89.5553+302.872+89.1745+301.859+89.1745C301.132+89.1745+300.523+89.4367+300.031+89.9611C299.538+90.4855+299.278+91.152+299.248+91.9606L304.478+91.9606Z" opacity="1" fill="#8e8e8e"/>
<path d="M308.987+94.4655C309.034+94.9928+309.165+95.3971+309.382+95.6784C309.781+96.1881+310.472+96.443+311.456+96.443C312.042+96.443+312.558+96.3156+313.003+96.0607C313.449+95.8058+313.671+95.4118+313.671+94.8786C313.671+94.4743+313.493+94.1667+313.135+93.9557C312.907+93.8268+312.455+93.6774+311.782+93.5075L310.525+93.1911C309.722+92.9919+309.13+92.7692+308.749+92.5231C308.07+92.0954+307.73+91.5036+307.73+90.7477C307.73+89.8571+308.051+89.1364+308.692+88.5856C309.334+88.0348+310.197+87.7594+311.281+87.7594C312.699+87.7594+313.721+88.1754+314.348+89.0075C314.741+89.5348+314.931+90.1032+314.919+90.7126L313.425+90.7126C313.396+90.3551+313.27+90.0299+313.047+89.737C312.684+89.321+312.054+89.1129+311.158+89.1129C310.56+89.1129+310.107+89.2272+309.8+89.4557C309.492+89.6842+309.338+89.986+309.338+90.361C309.338+90.7712+309.54+91.0993+309.945+91.3454C310.179+91.4919+310.525+91.6208+310.982+91.7321L312.028+91.987C313.164+92.2624+313.926+92.529+314.313+92.7868C314.928+93.1911+315.236+93.8268+315.236+94.694C315.236+95.5319+314.918+96.2555+314.282+96.8649C313.646+97.4743+312.678+97.779+311.377+97.779C309.977+97.779+308.985+97.4611+308.402+96.8253C307.819+96.1896+307.507+95.403+307.466+94.4655L308.987+94.4655Z" opacity="1" fill="#8e8e8e"/>
<path d="M317.987+94.4655C318.034+94.9928+318.165+95.3971+318.382+95.6784C318.781+96.1881+319.472+96.443+320.456+96.443C321.042+96.443+321.558+96.3156+322.003+96.0607C322.449+95.8058+322.671+95.4118+322.671+94.8786C322.671+94.4743+322.493+94.1667+322.135+93.9557C321.907+93.8268+321.455+93.6774+320.782+93.5075L319.525+93.1911C318.722+92.9919+318.13+92.7692+317.749+92.5231C317.07+92.0954+316.73+91.5036+316.73+90.7477C316.73+89.8571+317.051+89.1364+317.692+88.5856C318.334+88.0348+319.197+87.7594+320.281+87.7594C321.699+87.7594+322.721+88.1754+323.348+89.0075C323.741+89.5348+323.931+90.1032+323.919+90.7126L322.425+90.7126C322.396+90.3551+322.27+90.0299+322.047+89.737C321.684+89.321+321.054+89.1129+320.158+89.1129C319.56+89.1129+319.107+89.2272+318.8+89.4557C318.492+89.6842+318.338+89.986+318.338+90.361C318.338+90.7712+318.54+91.0993+318.945+91.3454C319.179+91.4919+319.525+91.6208+319.982+91.7321L321.028+91.987C322.164+92.2624+322.926+92.529+323.313+92.7868C323.928+93.1911+324.236+93.8268+324.236+94.694C324.236+95.5319+323.918+96.2555+323.282+96.8649C322.646+97.4743+321.678+97.779+320.377+97.779C318.977+97.779+317.985+97.4611+317.402+96.8253C316.819+96.1896+316.507+95.403+316.466+94.4655L317.987+94.4655Z" opacity="1" fill="#8e8e8e"/>
</g>
</g>
<g id="Untitled_3" vectornator:layerName="Untitled">
<path d="M293.542+130.386C292.438+130.386+291.542+131.281+291.542+132.386C291.542+133.49+292.438+134.386+293.542+134.386L305.542+134.386C304.438+134.386+303.542+133.49+303.542+132.386C303.542+131.281+304.438+130.386+305.542+130.386L293.542+130.386ZM287.542+138.386C287.542+137.281+288.438+136.386+289.542+136.386L309.542+136.386C310.647+136.386+311.542+137.281+311.542+138.386C311.542+139.49+310.647+140.386+309.542+140.386L289.542+140.386C288.438+140.386+287.542+139.49+287.542+138.386ZM283.542+146.386C283.542+144.176+285.333+142.386+287.542+142.386L311.542+142.386C313.752+142.386+315.542+144.176+315.542+146.386L315.542+154.386C315.542+156.595+313.752+158.386+311.542+158.386L287.542+158.386C285.333+158.386+283.542+156.595+283.542+154.386C283.542+154.386+283.542+146.386+283.542+146.386Z" opacity="1" fill="#8e8e8e"/>
<g opacity="1">
<g>
<path stroke-linecap="round" stroke-width="2" stroke="#378d3b" d="M273.874+141.673C259.946+141.761+108.247+142.718+108.247+142.718" fill="none" stroke-linejoin="round"/>
<path d="M272.124+141.684L266.918+148.717L280.873+141.629L266.829+134.717L272.124+141.684Z" fill="#378d3b"/>
</g>
</g>
<g opacity="1">
<g>
<path stroke-linecap="round" stroke-width="2" stroke="#8e8e8e" d="M114.992+153.316C128.873+153.233+279.807+152.33+279.807+152.33" fill="none" stroke-linejoin="round"/>
<path d="M116.742+153.305L121.95+146.274L107.992+153.357L122.034+160.274L116.742+153.305Z" fill="#8e8e8e"/>
</g>
</g>
<g opacity="1">
<g>
<path stroke="#8e8e8e" stroke-width="2" d="M567.9+139.981C550.092+139.909+328.648+139.009+328.648+139.009" fill="none" stroke-linecap="round" stroke-linejoin="round" stroke-dasharray="5"/>
<path d="M566.15+139.974L560.872+146.952L574.9+140.009L560.929+132.952L566.15+139.974Z" fill="#8e8e8e"/>
</g>
</g>
<path stroke="#8e8e8e" stroke-width="4" d="M429.61+122.245L461.428+158.938" fill="none" stroke-linecap="round" opacity="1" stroke-linejoin="round"/>
<path stroke="#8e8e8e" stroke-width="4" d="M424.674+158.707L462.244+121.257" fill="none" stroke-linecap="round" opacity="1" stroke-linejoin="round"/>
</g>
<g id="Untitled_4" vectornator:layerName="Untitled">
<path d="M593.705+93.8283C593.705+91.6191+595.496+89.8283+597.705+89.8283L621.705+89.8283C623.914+89.8283+625.705+91.6191+625.705+93.8283L625.705+97.8283C625.705+100.037+623.914+101.828+621.705+101.828L597.705+101.828C595.496+101.828+593.705+100.037+593.705+97.8283L593.705+93.8283ZM621.705+95.8283C621.705+96.9329+620.809+97.8283+619.705+97.8283C618.6+97.8283+617.705+96.9329+617.705+95.8283L621.705+95.8283ZM593.705+109.828C593.705+107.619+595.496+105.828+597.705+105.828L621.705+105.828C623.914+105.828+625.705+107.619+625.705+109.828L625.705+113.828C625.705+116.037+623.914+117.828+621.705+117.828L597.705+117.828C595.496+117.828+593.705+116.037+593.705+113.828C593.705+113.828+593.705+109.828+593.705+109.828ZM621.705+111.828C621.705+112.933+620.809+113.828+619.705+113.828C618.6+113.828+617.705+112.933+617.705+111.828L621.705+111.828Z" fill-rule="evenodd" fill="#000000" opacity="1"/>
</g>
<g id="Untitled_5" vectornator:layerName="Untitled">
<path stroke="#378d3b" stroke-width="2" d="M87.4663+153.147C89.6141+150.999+93.0964+150.999+95.2443+153.147M91.3553+156.743L91.3653+156.743M84.2853+149.672C88.1893+145.767+94.5213+145.767+98.4263+149.672M80.7493+146.136C86.6063+140.279+96.1043+140.279+101.962+146.136" fill="none" stroke-linecap="round" opacity="1" stroke-linejoin="round"/>
<g opacity="1">
<g>
<path stroke-linecap="round" stroke-width="2" stroke="#378d3b" d="M99.5877+130.678C99.5286+128.415+99.0148+108.747+99.0148+108.747" fill="none" stroke-linejoin="round"/>
<path d="M99.542+128.929L92.4073+123.863L99.7705+137.676L106.402+123.498L99.542+128.929Z" fill="#378d3b"/>
</g>
</g>
<g opacity="1">
<g>
<path stroke-linecap="round" stroke-width="2" stroke="#8e8e8e" d="M85.1838+112.261C85.1591+114.908+84.9528+137.096+84.9528+137.096" fill="none" stroke-linejoin="round"/>
<path d="M85.1675+114.011L92.1183+119.326L85.2489+105.261L78.119+119.196L85.1675+114.011Z" fill="#8e8e8e"/>
</g>
</g>
</g>
</svg>
