<?xml version="1.0" encoding="UTF-8" standalone="no"?> <!-- Created with Vectornator for iOS (http://vectornator.io/) --><!DOCTYPE svg PUBLIC "-//W3C//DTD SVG 1.1//EN" "http://www.w3.org/Graphics/SVG/1.1/DTD/svg11.dtd">
<svg height="100%" style="fill-rule:nonzero;clip-rule:evenodd;stroke-linecap:round;stroke-linejoin:round;" xmlns:xlink="http://www.w3.org/1999/xlink" xmlns="http://www.w3.org/2000/svg" xml:space="preserve" width="100%" xmlns:vectornator="http://vectornator.io" version="1.1" viewBox="0 0 512 512">
<g id="core" vectornator:layerName="core">
<path stroke="#000000" stroke-width="0.446547" d="M86+170.208C86+76.3196+162.112+0.207976+256+0.207976C349.888+0.207976+426+76.3196+426+170.208C426+264.096+349.888+340.208+256+340.208C162.112+340.208+86+264.096+86+170.208Z" fill="#4caf50" stroke-linecap="round" fill-opacity="0.624823" opacity="1" stroke-linejoin="round"/>
<path stroke="#000000" stroke-width="0.446547" d="M0.0789237+341.849C0.0789237+247.961+76.1905+171.849+170.079+171.849C263.967+171.849+340.079+247.961+340.079+341.849C340.079+435.738+263.967+511.849+170.079+511.849C76.1905+511.849+0.0789237+435.738+0.0789237+341.849Z" fill="#f44336" stroke-linecap="round" fill-opacity="0.556087" opacity="1" stroke-linejoin="round"/>
<path stroke="#000000" stroke-width="0.446547" d="M170.945+342.574C170.945+248.686+247.056+172.574+340.945+172.574C434.833+172.574+510.945+248.686+510.945+342.574C510.945+436.463+434.833+512.574+340.945+512.574C247.056+512.574+170.945+436.463+170.945+342.574Z" fill="#2196f3" stroke-linecap="round" fill-opacity="0.575001" opacity="1" stroke-linejoin="round"/>
<path stroke="#000000" stroke-width="1.44655" d="M87.6132+193.449C87.6132+193.449+119.076+172.023+169.949+171.93C219.605+171.838+255.916+195.273+255.916+195.273C255.916+195.273+223.232+213.181+202.327+243.196C174.755+282.783+172.814+318.557+172.814+318.557C172.814+318.557+140.369+301.963+115.119+265.884C91.5019+232.139+87.7027+193.439+87.7027+193.439" fill="#ff9800" stroke-linecap="round" fill-opacity="0.731561" opacity="1" stroke-linejoin="round"/>
<path stroke="#000000" stroke-width="1.44655" d="M256.41+195.416C256.41+195.416+292.636+172.818+341.421+173.039C390.206+173.259+423.991+194.745+423.991+194.745C423.991+194.745+418.543+234.52+397.274+265.453C376.004+296.386+338.912+318.475+338.912+318.475C338.912+318.475+332.224+278.363+311.647+247.6C291.07+216.838+256.603+195.426+256.603+195.426" fill="#00bcd4" stroke-linecap="round" fill-opacity="0.765794" opacity="1" stroke-linejoin="round"/>
<path stroke="#000000" stroke-width="1.44655" d="M173.442+319.431C173.442+319.431+211.341+339.968+252.519+339.908C293.698+339.848+338.155+319.19+338.155+319.19C338.155+319.19+348.892+362.054+325.546+413.541C302.2+465.029+254.875+489.214+254.875+489.214C254.875+489.214+211.027+466.372+186.381+412.467C161.736+358.562+172.806+319.531+172.806+319.531" fill="#9c27b0" stroke-linecap="round" fill-opacity="0.765794" opacity="1" stroke-linejoin="round"/>
<text x="110" font-family="Helvetica-Bold" y="0" text-anchor="middle" fill="#000000" font-size="40" vectornator:width="223.759" opacity="1" transform="matrix(1 0 0 1 306.55 356.5)">CHEAP</text>
<text x="110" font-family="Helvetica-Bold" y="0" text-anchor="middle" fill="#000000" font-size="40" vectornator:width="223.759" opacity="1" transform="matrix(1 0 0 1 143.881 103.026)">GOOD</text>
<text x="110" font-family="Helvetica-Bold" y="0" text-anchor="middle" fill="#000000" font-size="40" vectornator:width="223.759" opacity="1" transform="matrix(1 0 0 1 -9.94758 356.335)">FAST</text>
</g>
<g id="Question-mark" vectornator:layerName="Question-mark">
<g opacity="1">
<path stroke="#000000" stroke-width="0.446547" d="M151.793+248.948L149.606+248.948C148.066+248.948+146.815+250.2+146.815+251.739L146.815+254.759C146.815+256.299+148.066+257.55+149.606+257.55L151.793+257.55C153.333+257.55+154.584+256.299+154.584+254.759L154.584+251.739C154.584+250.195+153.333+248.948+151.793+248.948Z" fill="#f8f8f8" stroke-linecap="round" opacity="1" stroke-linejoin="round"/>
<path stroke="#000000" stroke-width="0.446547" d="M136.376+225.576L140.409+226.078C141.688+226.236+142.903+225.501+143.363+224.296C143.945+222.775+144.754+221.575+145.792+220.7C147.262+219.463+149.09+218.84+151.276+218.84C153.542+218.84+155.347+219.435+156.687+220.621C158.027+221.812+158.692+223.236+158.692+224.906C158.692+226.106+158.315+227.204+157.561+228.2C157.073+228.832+155.57+230.163+153.063+232.196C150.551+234.229+148.881+236.062+148.043+237.69C147.187+239.355+146.89+241.202+146.815+243.054C146.75+244.64+148.015+245.962+149.606+245.962L151.886+245.962C153.337+245.962+154.538+244.85+154.668+243.408C154.761+242.37+154.933+241.584+155.194+241.049C155.631+240.132+156.761+238.923+158.576+237.416C162.088+234.508+164.377+232.21+165.452+230.516C166.522+228.828+167.061+227.037+167.061+225.143C167.061+221.724+165.605+218.723+162.688+216.146C159.776+213.569+155.85+212.28+150.918+212.28C146.229+212.28+142.447+213.55+139.562+216.095C137.106+218.263+135.613+220.831+135.087+223.794C134.924+224.659+135.515+225.469+136.376+225.576Z" fill="#f8f8f8" stroke-linecap="round" opacity="1" stroke-linejoin="round"/>
</g>
<g opacity="1">
<path stroke="#000000" stroke-width="0.446547" d="M353.456+246.675L351.27+246.675C349.73+246.675+348.479+247.926+348.479+249.466L348.479+252.485C348.479+254.025+349.73+255.276+351.27+255.276L353.456+255.276C354.996+255.276+356.248+254.025+356.248+252.485L356.248+249.466C356.248+247.921+354.996+246.675+353.456+246.675Z" fill="#f8f8f8" stroke-linecap="round" opacity="1" stroke-linejoin="round"/>
<path stroke="#000000" stroke-width="0.446547" d="M338.039+223.302L342.073+223.805C343.352+223.963+344.566+223.228+345.027+222.023C345.608+220.502+346.418+219.301+347.455+218.427C348.925+217.189+350.753+216.566+352.94+216.566C355.206+216.566+357.011+217.161+358.35+218.348C359.69+219.539+360.356+220.962+360.356+222.632C360.356+223.833+359.979+224.93+359.225+225.926C358.737+226.559+357.234+227.889+354.726+229.922C352.214+231.955+350.544+233.788+349.707+235.416C348.851+237.082+348.553+238.929+348.479+240.78C348.414+242.367+349.679+243.688+351.27+243.688L353.549+243.688C355.001+243.688+356.201+242.576+356.331+241.134C356.425+240.096+356.597+239.31+356.857+238.775C357.294+237.859+358.425+236.649+360.239+235.142C363.752+232.234+366.04+229.936+367.115+228.243C368.185+226.554+368.725+224.763+368.725+222.87C368.725+219.45+367.269+216.45+364.352+213.872C361.44+211.295+357.513+210.006+352.582+210.006C347.892+210.006+344.11+211.276+341.226+213.821C338.77+215.989+337.276+218.557+336.751+221.52C336.588+222.386+337.179+223.195+338.039+223.302Z" fill="#f8f8f8" stroke-linecap="round" opacity="1" stroke-linejoin="round"/>
</g>
<g opacity="1">
<path stroke="#000000" stroke-width="0.446547" d="M250.774+412.664L248.588+412.664C247.048+412.664+245.796+413.915+245.796+415.455L245.796+418.475C245.796+420.014+247.048+421.266+248.588+421.266L250.774+421.266C252.314+421.266+253.565+420.014+253.565+418.475L253.565+415.455C253.565+413.911+252.314+412.664+250.774+412.664Z" fill="#f8f8f8" stroke-linecap="round" opacity="1" stroke-linejoin="round"/>
<path stroke="#000000" stroke-width="0.446547" d="M235.357+389.292L239.39+389.794C240.67+389.952+241.884+389.217+242.344+388.012C242.926+386.491+243.735+385.291+244.773+384.416C246.243+383.179+248.071+382.555+250.258+382.555C252.523+382.555+254.328+383.151+255.668+384.337C257.008+385.528+257.673+386.952+257.673+388.622C257.673+389.822+257.296+390.92+256.543+391.916C256.054+392.548+254.552+393.879+252.044+395.912C249.532+397.945+247.862+399.778+247.025+401.406C246.169+403.071+245.871+404.918+245.796+406.77C245.731+408.356+246.997+409.677+248.588+409.677L250.867+409.677C252.319+409.677+253.519+408.566+253.649+407.123C253.742+406.086+253.914+405.3+254.175+404.765C254.612+403.848+255.743+402.639+257.557+401.131C261.069+398.224+263.358+395.926+264.433+394.232C265.503+392.544+266.043+390.752+266.043+388.859C266.043+385.44+264.586+382.439+261.67+379.862C258.757+377.285+254.831+375.996+249.9+375.996C245.21+375.996+241.428+377.266+238.544+379.811C236.087+381.979+234.594+384.547+234.068+387.51C233.905+388.375+234.496+389.185+235.357+389.292Z" fill="#f8f8f8" stroke-linecap="round" opacity="1" stroke-linejoin="round"/>
</g>
</g>
</svg>
