<?xml version="1.0" encoding="UTF-8" standalone="no"?> <!-- Created with Vectornator for iOS (http://vectornator.io/) --><!DOCTYPE svg PUBLIC "-//W3C//DTD SVG 1.1//EN" "http://www.w3.org/Graphics/SVG/1.1/DTD/svg11.dtd">
<svg height="100%" style="fill-rule:nonzero;clip-rule:evenodd;stroke-linecap:round;stroke-linejoin:round;" xmlns:xlink="http://www.w3.org/1999/xlink" xmlns="http://www.w3.org/2000/svg" xml:space="preserve" width="100%" xmlns:vectornator="http://vectornator.io" version="1.1" viewBox="0 0 512 512">

<g id="core" vectornator:layerName="core">
<path stroke="#000000" stroke-width="0.446547" d="M86+170.208C86+76.3196+162.112+0.207976+256+0.207976C349.888+0.207976+426+76.3196+426+170.208C426+264.096+349.888+340.208+256+340.208C162.112+340.208+86+264.096+86+170.208Z" fill="#4caf50" stroke-linecap="round" fill-opacity="0.624823" opacity="1" stroke-linejoin="round"/>
<path stroke="#000000" stroke-width="0.446547" d="M0.0789237+341.849C0.0789237+247.961+76.1905+171.849+170.079+171.849C263.967+171.849+340.079+247.961+340.079+341.849C340.079+435.738+263.967+511.849+170.079+511.849C76.1905+511.849+0.0789237+435.738+0.0789237+341.849Z" fill="#f44336" stroke-linecap="round" fill-opacity="0.556087" opacity="1" stroke-linejoin="round"/>
<path stroke="#000000" stroke-width="0.446547" d="M170.945+342.574C170.945+248.686+247.056+172.574+340.945+172.574C434.833+172.574+510.945+248.686+510.945+342.574C510.945+436.463+434.833+512.574+340.945+512.574C247.056+512.574+170.945+436.463+170.945+342.574Z" fill="#2196f3" stroke-linecap="round" fill-opacity="0.575001" opacity="1" stroke-linejoin="round"/>
<path stroke="#000000" stroke-width="1.44655" d="M87.6132+193.449C87.6132+193.449+119.076+172.023+169.949+171.93C219.605+171.838+255.916+195.273+255.916+195.273C255.916+195.273+223.232+213.181+202.327+243.196C174.755+282.783+172.814+318.557+172.814+318.557C172.814+318.557+140.369+301.963+115.119+265.884C91.5019+232.139+87.7027+193.439+87.7027+193.439" fill="#ff9800" stroke-linecap="round" fill-opacity="0.731561" opacity="1" stroke-linejoin="round"/>
<path stroke="#000000" stroke-width="1.44655" d="M256.41+195.416C256.41+195.416+292.636+172.818+341.421+173.039C390.206+173.259+423.991+194.745+423.991+194.745C423.991+194.745+418.543+234.52+397.274+265.453C376.004+296.386+338.912+318.475+338.912+318.475C338.912+318.475+332.224+278.363+311.647+247.6C291.07+216.838+256.603+195.426+256.603+195.426" fill="#00bcd4" stroke-linecap="round" fill-opacity="0.765794" opacity="1" stroke-linejoin="round"/>
<path stroke="#000000" stroke-width="1.44655" d="M173.442+319.431C173.442+319.431+211.341+339.968+252.519+339.908C293.698+339.848+338.155+319.19+338.155+319.19C338.155+319.19+348.892+362.054+325.546+413.541C302.2+465.029+254.875+489.214+254.875+489.214C254.875+489.214+211.027+466.372+186.381+412.467C161.736+358.562+172.806+319.531+172.806+319.531" fill="#9c27b0" stroke-linecap="round" fill-opacity="0.765794" opacity="1" stroke-linejoin="round"/>
<text x="110" font-family="Helvetica-Bold" y="0" text-anchor="middle" fill="#000000" font-size="40" vectornator:width="223.759" opacity="1" transform="matrix(1 0 0 1 306.55 356.5)">CHEAP</text>
<text x="110" font-family="Helvetica-Bold" y="0" text-anchor="middle" fill="#000000" font-size="40" vectornator:width="223.759" opacity="1" transform="matrix(1 0 0 1 143.881 103.026)">GOOD</text>
<text x="110" font-family="Helvetica-Bold" y="0" text-anchor="middle" fill="#000000" font-size="40" vectornator:width="223.759" opacity="1" transform="matrix(1 0 0 1 -9.94758 356.335)">FAST</text>
</g>
<g id="perfect-star" vectornator:layerName="perfect-star">
<path stroke="#000000" stroke-width="0.446547" d="M251.778+312.725L241.889+291.657L219.778+288.279L235.778+271.88L232.001+248.725L251.778+259.657L271.555+248.725L267.778+271.88L283.778+288.279L261.666+291.657L251.778+312.725Z" fill="#ffffff" stroke-linecap="round" opacity="1" stroke-linejoin="round"/>
</g>
</svg>
