<?xml version="1.0" encoding="UTF-8" standalone="no"?> <!-- Created with Vectornator for iOS (http://vectornator.io/) --><!DOCTYPE svg PUBLIC "-//W3C//DTD SVG 1.1//EN" "http://www.w3.org/Graphics/SVG/1.1/DTD/svg11.dtd">
<svg height="100%" style="fill-rule:nonzero;clip-rule:evenodd;stroke-linecap:round;stroke-linejoin:round;" xmlns:xlink="http://www.w3.org/1999/xlink" xmlns="http://www.w3.org/2000/svg" xml:space="preserve" width="100%" xmlns:vectornator="http://vectornator.io" version="1.1" viewBox="0 0 375 667">
<metadata>
<vectornator:setting key="DimensionsVisible" value="1"/>
<vectornator:setting key="PencilOnly" value="0"/>
<vectornator:setting key="SnapToPoints" value="0"/>
<vectornator:setting key="GuidesVisible" value="1"/>
<vectornator:setting key="RulersVisible" value="1"/>
<vectornator:setting key="OutlineMode" value="0"/>
<vectornator:setting key="CMYKEnabledKey" value="0"/>
<vectornator:setting key="SnapToEdges" value="0"/>
<vectornator:setting key="DisplayWhiteBackground" value="0"/>
<vectornator:setting key="doHistoryDisabled" value="0"/>
<vectornator:setting key="TimeLapseWatermarkDisabled" value="0"/>
<vectornator:setting key="SnapToGuides" value="1"/>
<vectornator:setting key="DynamicGuides" value="0"/>
<vectornator:setting key="SnapToGrid" value="0"/>
<vectornator:setting key="IsolateActiveLayer" value="0"/>
<vectornator:setting key="Units" value="Points"/>
</metadata>
<defs/>
<g id="phone" vectornator:layerName="phone">
<path stroke="#000000" stroke-width="24" d="M10.2834+10.4617L364.916+10.4617L364.916+657.035L10.2834+657.035L10.2834+10.4617Z" fill="#111111" stroke-linecap="round" fill-opacity="0.913641" opacity="1" stroke-linejoin="round"/>
<path d="M175+13.3635C175+16.6772+177.686+19.3635+181+19.3635C184.314+19.3635+187+16.6772+187+13.3635C187+10.0498+184.314+7.36352+181+7.36352C177.686+7.36352+175+10.0498+175+13.3635Z" opacity="1" fill="#f6f6f6"/>
<path stroke="#000000" stroke-width="4" d="M184.681+103L103.93+103L103.93+187L184.681+187L184.681+103Z" fill="#bababa" stroke-linecap="round" opacity="1" stroke-linejoin="round"/>
<path d="M166.176+126.179C166.176+125.313+165.787+124.493+165.118+123.944C164.448+123.396+163.568+123.176+162.719+123.346L133.813+129.127C132.462+129.397+131.49+130.582+131.489+131.96L131.489+158.305C130.541+158.084+129.571+157.973+128.598+157.975C123.809+157.975+119.926+160.562+119.926+163.757C119.926+166.951+123.809+169.538+128.598+169.538C133.388+169.538+137.27+166.951+137.27+163.757L137.27+140.111L160.395+135.486L160.395+152.524C159.447+152.303+158.477+152.192+157.504+152.194C152.715+152.194+148.833+154.781+148.833+157.975C148.833+161.169+152.715+163.757+157.504+163.757C162.294+163.757+166.176+161.169+166.176+157.975C166.176+157.975+166.176+126.179+166.176+126.179Z" opacity="1" fill="#000000"/>
</g>
<g id="Header" vectornator:layerName="Header">
<path d="M21.6551+21.8854L353.088+21.8854L353.088+38.0626L21.6551+38.0626L21.6551+21.8854Z" opacity="1" fill="#00600f"/>
<path d="M21.9879+37.9609L353.421+37.9609L353.421+87.1316L21.9879+87.1316L21.9879+37.9609Z" opacity="1" fill="#388e3c"/>
<path d="M45.8018+71.5524C45.3625+71.9916+44.6503+71.9916+44.211+71.5524L37.4609+64.8023C37.0217+64.363+37.0217+63.6508+37.4609+63.2115L44.211+56.4614C44.6524+56.0351+45.3541+56.0412+45.7881+56.4751C46.222+56.9091+46.2281+57.6108+45.8018+58.0522L40.9721+62.8819L54.0065+62.8819C54.6278+62.8819+55.1315+63.3856+55.1315+64.0069C55.1315+64.6282+54.6278+65.1319+54.0065+65.1319L40.9721+65.1319L45.8018+69.9616C46.241+70.4009+46.241+71.1131+45.8018+71.5524Z" fill-rule="evenodd" fill="#000000" opacity="1"/>
<text x="0" font-family="Helvetica" y="0" text-anchor="middle" vectornator:text="Your&#x20;songs" fill="#000000" font-size="16" vectornator:width="159.747" opacity="1" transform="matrix(1 0 0 1 63.8508 51.6166)">
<tspan x="80.6737" y="16" textLength="80.9375">
Your songs</tspan>
</text>
</g>
<g id="User" vectornator:layerName="User">
<text x="0" font-family="Helvetica" y="0" text-anchor="middle" vectornator:text="Username" fill="#000000" font-size="16" vectornator:width="79.3243" opacity="1" transform="matrix(1 0 0 1 263.541 52.8086)">
<tspan x="40.4621" y="16" textLength="73.8047">
Username</tspan>
</text>
</g>
<g id="image" vectornator:layerName="image">
<path stroke="#000000" stroke-width="4" d="M265.739+102.582L184.987+102.582L184.987+186.582L265.739+186.582L265.739+102.582Z" fill="#bababa" stroke-linecap="round" opacity="1" stroke-linejoin="round"/>
<path d="M247.234+125.761C247.233+124.895+246.845+124.075+246.175+123.526C245.505+122.978+244.625+122.758+243.776+122.928L214.87+128.709C213.52+128.979+212.547+130.164+212.546+131.542L212.546+157.887C211.598+157.666+210.629+157.556+209.655+157.557C204.866+157.557+200.984+160.145+200.984+163.339C200.984+166.533+204.866+169.12+209.655+169.12C214.445+169.12+218.327+166.533+218.327+163.339L218.327+139.693L241.452+135.068L241.452+152.106C240.505+151.885+239.535+151.774+238.562+151.776C233.772+151.776+229.89+154.363+229.89+157.557C229.89+160.752+233.772+163.339+238.562+163.339C243.351+163.339+247.234+160.752+247.234+157.557C247.234+157.557+247.234+125.761+247.234+125.761Z" opacity="1" fill="#000000"/>
<path stroke="#000000" stroke-width="4" d="M185.764+186.538L105.013+186.538L105.013+270.538L185.764+270.538L185.764+186.538Z" fill="#bababa" stroke-linecap="round" opacity="1" stroke-linejoin="round"/>
<text x="0" font-family="Helvetica" y="0" text-anchor="middle" vectornator:text="Library" fill="#bababa" font-size="14" vectornator:width="71.5747" opacity="1" transform="matrix(1 0 0 1 266.387 624.189)">
<tspan x="36.4873" y="14" textLength="42.793">
Library</tspan>
</text>
<path d="M167.259+209.716C167.259+208.85+166.87+208.031+166.201+207.482C165.531+206.933+164.651+206.714+163.802+206.883L134.896+212.665C133.545+212.934+132.573+214.12+132.572+215.497L132.572+241.842C131.624+241.622+130.654+241.511+129.681+241.513C124.892+241.513+121.009+244.1+121.009+247.294C121.009+250.488+124.892+253.075+129.681+253.075C134.471+253.075+138.353+250.488+138.353+247.294L138.353+223.649L161.478+219.024L161.478+236.061C160.53+235.84+159.561+235.73+158.588+235.732C153.798+235.732+149.916+238.319+149.916+241.513C149.916+244.707+153.798+247.294+158.588+247.294C163.377+247.294+167.259+244.707+167.259+241.513C167.259+241.513+167.259+209.716+167.259+209.716Z" opacity="1" fill="#000000"/>
<path stroke="#000000" stroke-width="4" d="M266.006+186.259L185.255+186.259L185.255+270.259L266.006+270.259L266.006+186.259Z" fill="#bababa" stroke-linecap="round" opacity="1" stroke-linejoin="round"/>
<path d="M247.501+209.438C247.501+208.572+247.112+207.752+246.443+207.204C245.773+206.655+244.893+206.435+244.044+206.605L215.138+212.386C213.787+212.656+212.815+213.842+212.814+215.219L212.814+241.564C211.866+241.343+210.896+241.233+209.923+241.235C205.133+241.235+201.251+243.822+201.251+247.016C201.251+250.21+205.133+252.797+209.923+252.797C214.713+252.797+218.595+250.21+218.595+247.016L218.595+223.371L241.72+218.746L241.72+235.783C240.772+235.562+239.802+235.452+238.829+235.453C234.04+235.453+230.157+238.041+230.157+241.235C230.157+244.429+234.04+247.016+238.829+247.016C243.619+247.016+247.501+244.429+247.501+241.235C247.501+241.235+247.501+209.438+247.501+209.438Z" opacity="1" fill="#000000"/>
</g>
<g id="buttons" vectornator:layerName="buttons">
<text x="0" font-family="Helvetica" y="0" text-anchor="middle" vectornator:text="Listen&#x20;12&#x20;345&#x20;times&#x20;" fill="#bababa" font-size="18" vectornator:width="304.266" opacity="1" transform="matrix(1 0 0 1 32.2487 293.914)">
<tspan x="80.5474" y="17" textLength="161.095">
Listen 12 345 times </tspan>
</text>
<path d="M286.23+320.107C286.23+305.195+298.319+293.107+313.23+293.107C328.142+293.107+340.23+305.195+340.23+320.107C340.23+335.019+328.142+347.107+313.23+347.107C298.319+347.107+286.23+335.019+286.23+320.107Z" opacity="1" fill="#388e3c"/>
<path d="M326.571+321.128L302.571+333.125L302.575+309.125L326.571+321.128Z" opacity="1" fill="#000000"/>
<path stroke="#bababa" stroke-width="2" d="M40.1863+325.474C37.8431+327.817+37.8431+331.617+40.1863+333.96L50.429+344.202L60.6716+333.96C63.0148+331.617+63.0148+327.818+60.6716+325.474C58.3285+323.131+54.5294+323.131+52.1863+325.474L50.429+327.232L48.6716+325.474C46.3285+323.131+42.5295+323.131+40.1863+325.474Z" fill="none" stroke-linecap="round" opacity="1" stroke-linejoin="round"/>
<path d="M104.347+333.965C104.732+334.347+104.734+334.969+104.352+335.354L98.4773+341.267C98.0949+341.652+97.4731+341.654+97.0883+341.271L91.1753+335.397C90.8018+335.013+90.8051+334.4+91.1828+334.02C91.5605+333.64+92.1731+333.632+92.5598+334.003L96.7905+338.207L96.7536+326.826C96.7518+326.283+97.1902+325.842+97.7327+325.84C98.2752+325.838+98.7164+326.277+98.7182+326.819L98.7551+338.2L102.958+333.97C103.341+333.585+103.963+333.583+104.347+333.965Z" fill-rule="evenodd" fill="#bababa" opacity="1"/>
<g opacity="1">
<path d="M135.915+325.45C135.915+324.07+137.035+322.95+138.415+322.95C139.796+322.95+140.915+324.07+140.915+325.45C140.915+326.831+139.796+327.95+138.415+327.95C137.035+327.95+135.915+326.831+135.915+325.45Z" opacity="1" fill="#bababa"/>
<path d="M136.577+343.125C136.577+341.744+137.696+340.625+139.077+340.625C140.458+340.625+141.577+341.744+141.577+343.125C141.577+344.506+140.458+345.625+139.077+345.625C137.696+345.625+136.577+344.506+136.577+343.125Z" opacity="1" fill="#bababa"/>
<path d="M136.086+334.16C136.086+332.779+137.205+331.66+138.586+331.66C139.966+331.66+141.086+332.779+141.086+334.16C141.086+335.541+139.966+336.66+138.586+336.66C137.205+336.66+136.086+335.541+136.086+334.16Z" opacity="1" fill="#bababa"/>
</g>
</g>
<g id="Song 1" vectornator:layerName="Song 1">
<path d="M23.4775+377.646L352.873+377.646L352.873+441.882L23.4775+441.882L23.4775+377.646Z" opacity="1" fill="#bababa"/>
<text x="0" font-family="Helvetica-Bold" y="0" text-anchor="middle" vectornator:text="First&#x20;recommended" fill="#000000" font-size="18" vectornator:width="182.625" opacity="1" transform="matrix(1 0 0 1 93.1838 388.509)">
<tspan x="83.5225" y="17" textLength="167.045">
First recommended</tspan>
</text>
<text x="0" font-family="Helvetica" y="0" text-anchor="middle" vectornator:text="Artist" fill="#000000" font-size="18" vectornator:width="138.558" opacity="1" transform="matrix(1 0 0 1 94.2039 412.9)">
<tspan x="20.5005" y="17" textLength="41.001">
Artist</tspan>
</text>
<path stroke="#000000" stroke-width="4" d="M81.2154+383.364L31.3754+383.364L31.3754+437.074L81.2154+437.074L81.2154+383.364Z" fill="#bababa" stroke-linecap="round" opacity="1" stroke-linejoin="round"/>
<path d="M69.794+397.184C69.7937+396.631+69.554+396.106+69.1407+395.756C68.7274+395.405+68.1842+395.264+67.6603+395.373L49.8193+399.069C48.9857+399.242+48.3854+400+48.3849+400.881L48.3849+417.726C47.8+417.585+47.2013+417.514+46.6008+417.515C43.6445+417.515+41.2485+419.17+41.2485+421.212C41.2485+423.254+43.6445+424.909+46.6008+424.909C49.557+424.909+51.9531+423.254+51.9531+421.212L51.9531+406.093L66.2258+403.136L66.2258+414.03C65.641+413.888+65.0423+413.818+64.4417+413.819C61.4855+413.819+59.0895+415.473+59.0895+417.515C59.0895+419.558+61.4855+421.212+64.4417+421.212C67.398+421.212+69.794+419.558+69.794+417.515C69.794+417.515+69.794+397.184+69.794+397.184Z" opacity="1" fill="#000000"/>
<path stroke="#bababa" stroke-width="1" d="M86.1324+333.698C86.1324+327.07+91.505+321.698+98.1324+321.698C104.76+321.698+110.132+327.07+110.132+333.698C110.132+340.325+104.76+345.698+98.1324+345.698C91.505+345.698+86.1324+340.325+86.1324+333.698Z" fill="none" stroke-linecap="round" opacity="1" stroke-linejoin="round"/>
<g opacity="1">
<path d="M331.066+399.315C331.066+397.61+332.448+396.228+334.153+396.228C335.858+396.228+337.24+397.61+337.24+399.315C337.24+401.02+335.858+402.402+334.153+402.402C332.448+402.402+331.066+401.02+331.066+399.315Z" opacity="1" fill="#000000"/>
<path d="M331.883+421.141C331.883+419.436+333.265+418.053+334.97+418.053C336.675+418.053+338.058+419.436+338.058+421.141C338.058+422.846+336.675+424.228+334.97+424.228C333.265+424.228+331.883+422.846+331.883+421.141Z" opacity="1" fill="#000000"/>
<path d="M331.276+410.07C331.276+408.365+332.658+406.983+334.363+406.983C336.068+406.983+337.451+408.365+337.451+410.07C337.451+411.775+336.068+413.157+334.363+413.157C332.658+413.157+331.276+411.775+331.276+410.07Z" opacity="1" fill="#000000"/>
</g>
</g>
<g id="Song 2" vectornator:layerName="Song 2">
<path d="M22.4775+447.646L351.873+447.646L351.873+511.882L22.4775+511.882L22.4775+447.646Z" opacity="1" fill="#bababa"/>
<text x="0" font-family="Helvetica-Bold" y="0" text-anchor="middle" vectornator:text="Second&#x20;recommended" fill="#000000" font-size="18" vectornator:width="226.947" opacity="1" transform="matrix(1 0 0 1 92.1838 458.509)">
<tspan x="96.5259" y="17" textLength="193.052">
Second recommended</tspan>
</text>
<text x="0" font-family="Helvetica" y="0" text-anchor="middle" vectornator:text="Artist" fill="#000000" font-size="18" vectornator:width="138.558" opacity="1" transform="matrix(1 0 0 1 93.2039 482.9)">
<tspan x="20.5005" y="17" textLength="41.001">
Artist</tspan>
</text>
<path stroke="#000000" stroke-width="4" d="M80.2154+453.364L30.3754+453.364L30.3754+507.074L80.2154+507.074L80.2154+453.364Z" fill="#bababa" stroke-linecap="round" opacity="1" stroke-linejoin="round"/>
<path d="M68.794+467.184C68.7937+466.631+68.554+466.106+68.1407+465.756C67.7274+465.405+67.1842+465.264+66.6603+465.373L48.8193+469.069C47.9857+469.242+47.3854+470+47.3849+470.881L47.3849+487.726C46.8+487.585+46.2013+487.514+45.6008+487.515C42.6445+487.515+40.2485+489.17+40.2485+491.212C40.2485+493.254+42.6445+494.909+45.6008+494.909C48.557+494.909+50.9531+493.254+50.9531+491.212L50.9531+476.093L65.2258+473.136L65.2258+484.03C64.641+483.888+64.0423+483.818+63.4417+483.819C60.4855+483.819+58.0895+485.473+58.0895+487.515C58.0895+489.558+60.4855+491.212+63.4417+491.212C66.398+491.212+68.794+489.558+68.794+487.515C68.794+487.515+68.794+467.184+68.794+467.184Z" opacity="1" fill="#000000"/>
<g opacity="1">
<path d="M332.756+471.279C332.756+469.574+334.138+468.192+335.843+468.192C337.548+468.192+338.93+469.574+338.93+471.279C338.93+472.984+337.548+474.366+335.843+474.366C334.138+474.366+332.756+472.984+332.756+471.279Z" opacity="1" fill="#000000"/>
<path d="M333.573+493.105C333.573+491.4+334.955+490.018+336.66+490.018C338.365+490.018+339.747+491.4+339.747+493.105C339.747+494.81+338.365+496.192+336.66+496.192C334.955+496.192+333.573+494.81+333.573+493.105Z" opacity="1" fill="#000000"/>
<path d="M332.966+482.034C332.966+480.329+334.348+478.947+336.053+478.947C337.758+478.947+339.14+480.329+339.14+482.034C339.14+483.739+337.758+485.122+336.053+485.122C334.348+485.122+332.966+483.739+332.966+482.034Z" opacity="1" fill="#000000"/>
</g>
</g>
<g id="Song 3" vectornator:layerName="Song 3">
<path d="M21.4775+517.646L350.873+517.646L350.873+581.882L21.4775+581.882L21.4775+517.646Z" opacity="1" fill="#bababa"/>
<text x="0" font-family="Helvetica-Bold" y="0" text-anchor="middle" vectornator:text="Third&#x20;Recommended" fill="#000000" font-size="18" vectornator:width="182.625" opacity="1" transform="matrix(1 0 0 1 91.1838 528.509)">
<tspan x="89.5122" y="17" textLength="179.024">
Third Recommended</tspan>
</text>
<text x="0" font-family="Helvetica" y="0" text-anchor="middle" vectornator:text="Artist" fill="#000000" font-size="18" vectornator:width="138.558" opacity="1" transform="matrix(1 0 0 1 92.2039 551.9)">
<tspan x="20.5005" y="17" textLength="41.001">
Artist</tspan>
</text>
<path stroke="#000000" stroke-width="4" d="M79.2154+523.364L29.3754+523.364L29.3754+577.074L79.2154+577.074L79.2154+523.364Z" fill="#bababa" stroke-linecap="round" opacity="1" stroke-linejoin="round"/>
<path d="M67.794+537.184C67.7937+536.631+67.554+536.106+67.1407+535.756C66.7274+535.405+66.1842+535.264+65.6603+535.373L47.8193+539.069C46.9857+539.242+46.3854+540+46.3849+540.881L46.3849+557.726C45.8+557.585+45.2013+557.514+44.6008+557.515C41.6445+557.515+39.2485+559.17+39.2485+561.212C39.2485+563.254+41.6445+564.909+44.6008+564.909C47.557+564.909+49.9531+563.254+49.9531+561.212L49.9531+546.093L64.2258+543.136L64.2258+554.03C63.641+553.888+63.0423+553.818+62.4417+553.819C59.4855+553.819+57.0895+555.473+57.0895+557.515C57.0895+559.558+59.4855+561.212+62.4417+561.212C65.398+561.212+67.794+559.558+67.794+557.515C67.794+557.515+67.794+537.184+67.794+537.184Z" opacity="1" fill="#000000"/>
<g opacity="1">
<path d="M331.942+538.627C331.942+536.922+333.324+535.54+335.029+535.54C336.734+535.54+338.116+536.922+338.116+538.627C338.116+540.332+336.734+541.715+335.029+541.715C333.324+541.715+331.942+540.332+331.942+538.627Z" opacity="1" fill="#000000"/>
<path d="M332.759+560.453C332.759+558.748+334.141+557.366+335.846+557.366C337.551+557.366+338.933+558.748+338.933+560.453C338.933+562.158+337.551+563.54+335.846+563.54C334.141+563.54+332.759+562.158+332.759+560.453Z" opacity="1" fill="#000000"/>
<path d="M332.152+549.383C332.152+547.678+333.534+546.296+335.239+546.296C336.944+546.296+338.326+547.678+338.326+549.383C338.326+551.088+336.944+552.47+335.239+552.47C333.534+552.47+332.152+551.088+332.152+549.383Z" opacity="1" fill="#000000"/>
</g>
</g>
<g id="bottom" vectornator:layerName="bottom">
<path stroke="#000000" stroke-opacity="0.913641" stroke-width="2" d="M20.3932+589.049L353.255+589.049L353.255+645.4L20.3932+645.4L20.3932+589.049Z" fill="#141414" stroke-linecap="round" opacity="1" stroke-linejoin="round"/>
<path stroke="#bababa" stroke-width="2" d="M292.158+594.971C292.158+593.499+293.351+592.305+294.824+592.305L308.158+592.305C309.63+592.305+310.824+593.499+310.824+594.971L310.824+616.305L301.491+611.638L292.158+616.305L292.158+594.971Z" fill="none" stroke-linecap="round" opacity="1" stroke-linejoin="round"/>
<path stroke="#bababa" stroke-width="2" d="M207.945+617.359L198.74+608.153" fill="none" stroke-linecap="round" opacity="1" stroke-linejoin="round"/>
<g opacity="1">
<path stroke="#bababa" stroke-width="2" d="M207.945+617.359L198.74+608.153" fill="none" stroke-linecap="round" opacity="1" stroke-linejoin="round"/>
<path stroke="#bababa" stroke-width="2" d="M183.573+602.009C183.573+597.231+187.402+593.359+192.124+593.359C196.846+593.359+200.674+597.231+200.674+602.009C200.674+606.786+196.846+610.659+192.124+610.659C187.402+610.659+183.573+606.786+183.573+602.009Z" fill="none" stroke-linecap="round" opacity="1" stroke-linejoin="round"/>
</g>
<path stroke="#bababa" stroke-width="2" d="M71.5653+605.243L74.1208+602.687M74.1208+602.687L83.0653+593.743L92.0097+602.687M74.1208+602.687L74.1208+615.465C74.1208+616.171+74.6929+616.743+75.3986+616.743L79.2319+616.743M92.0097+602.687L94.5653+605.243M92.0097+602.687L92.0097+615.465C92.0097+616.171+91.4376+616.743+90.7319+616.743L86.8986+616.743M79.2319+616.743C79.9376+616.743+80.5097+616.171+80.5097+615.465L80.5097+610.354C80.5097+609.648+81.0818+609.076+81.7875+609.076L84.343+609.076C85.0487+609.076+85.6208+609.648+85.6208+610.354L85.6208+615.465C85.6208+616.171+86.1929+616.743+86.8986+616.743M79.2319+616.743L86.8986+616.743" fill="none" stroke-linecap="round" opacity="1" stroke-linejoin="round"/>
<text x="0" font-family="Helvetica" y="0" text-anchor="middle" vectornator:text="Home" fill="#bababa" font-size="14" vectornator:width="71.5747" opacity="1" transform="matrix(1 0 0 1 50.7132 623.633)">
<tspan x="36.4873" y="14" textLength="37.3447">
Home</tspan>
</text>
<text x="0" font-family="Helvetica" y="0" text-anchor="middle" vectornator:text="Search" fill="#bababa" font-size="14" vectornator:width="71.5747" opacity="1" transform="matrix(1 0 0 1 163.02 623.044)">
<tspan x="36.4873" y="14" textLength="44.3584">
Search</tspan>
</text>
<g opacity="1">
<path d="M236.87+63.096C236.87+56.4686+242.243+51.096+248.87+51.096C255.497+51.096+260.87+56.4686+260.87+63.096C260.87+69.7234+255.497+75.096+248.87+75.096C242.243+75.096+236.87+69.7234+236.87+63.096Z" opacity="1" fill="#000000"/>
<path d="M245.156+57.812C245.156+56.249+246.558+54.982+248.286+54.982C250.015+54.982+251.416+56.249+251.416+57.812C251.416+59.375+250.015+60.642+248.286+60.642C246.558+60.642+245.156+59.375+245.156+57.812Z" opacity="1" fill="#358839"/>
<path d="M240.122+68.0165C240.122+65.2699+243.996+63.0433+248.774+63.0433C253.552+63.0433+257.426+65.2699+257.426+68.0165C257.426+70.7631+253.552+72.9897+248.774+72.9897C243.996+72.9897+240.122+70.7631+240.122+68.0165Z" opacity="1" fill="#358839"/>
</g>
</g>
</svg>
