<?xml version="1.0" encoding="UTF-8" standalone="no"?> <!-- Created with Vectornator for iOS (http://vectornator.io/) --><!DOCTYPE svg PUBLIC "-//W3C//DTD SVG 1.1//EN" "http://www.w3.org/Graphics/SVG/1.1/DTD/svg11.dtd">
<svg height="100%" style="fill-rule:nonzero;clip-rule:evenodd;stroke-linecap:round;stroke-linejoin:round;" xmlns:xlink="http://www.w3.org/1999/xlink" xmlns="http://www.w3.org/2000/svg" xml:space="preserve" width="100%" xmlns:vectornator="http://vectornator.io" version="1.1" viewBox="0 0 375 667">
<metadata>
<vectornator:setting key="DimensionsVisible" value="1"/>
<vectornator:setting key="PencilOnly" value="0"/>
<vectornator:setting key="SnapToPoints" value="0"/>
<vectornator:setting key="GuidesVisible" value="1"/>
<vectornator:setting key="CMYKEnabledKey" value="0"/>
<vectornator:setting key="OutlineMode" value="0"/>
<vectornator:setting key="SnapToEdges" value="0"/>
<vectornator:setting key="RulersVisible" value="1"/>
<vectornator:setting key="DisplayWhiteBackground" value="0"/>
<vectornator:setting key="doHistoryDisabled" value="0"/>
<vectornator:setting key="TimeLapseWatermarkDisabled" value="0"/>
<vectornator:setting key="SnapToGuides" value="1"/>
<vectornator:setting key="Units" value="Points"/>
<vectornator:setting key="DynamicGuides" value="0"/>
<vectornator:setting key="SnapToGrid" value="0"/>
<vectornator:setting key="IsolateActiveLayer" value="0"/>
</metadata>
<defs/>
<g id="phone" vectornator:layerName="phone">
<path stroke="#000000" stroke-width="24" d="M10.2834+10.4617L364.916+10.4617L364.916+657.035L10.2834+657.035L10.2834+10.4617Z" fill="#111111" stroke-linecap="round" fill-opacity="0.913641" opacity="1" stroke-linejoin="round"/>
<path d="M175+13.3635C175+16.6772+177.686+19.3635+181+19.3635C184.314+19.3635+187+16.6772+187+13.3635C187+10.0498+184.314+7.36352+181+7.36352C177.686+7.36352+175+10.0498+175+13.3635Z" opacity="1" fill="#f6f6f6"/>
</g>
<g id="Header" vectornator:layerName="Header">
<path d="M21.6551+21.8854L353.088+21.8854L353.088+38.0626L21.6551+38.0626L21.6551+21.8854Z" opacity="1" fill="#00600f"/>
<path d="M21.9879+37.9609L353.421+37.9609L353.421+87.1316L21.9879+87.1316L21.9879+37.9609Z" opacity="1" fill="#388e3c"/>
<text x="0" font-family="Helvetica" y="0" text-anchor="middle" vectornator:text="Login" fill="#000000" font-size="18" vectornator:width="68.1602" opacity="1" transform="matrix(1 0 0 1 40.9739 48.0509)">
<tspan x="22.021" y="17" textLength="44.042">
Login</tspan>
</text>
</g>
<g id="Untitled" vectornator:layerName="Untitled">
<path d="M304.026+51.246C304.855+51.246+305.526+51.9176+305.526+52.746L305.526+70.7461C305.526+71.5745+304.855+72.2461+304.026+72.2461C303.198+72.2461+302.526+71.5745+302.526+70.7461L302.526+52.746C302.526+51.9176+303.198+51.246+304.026+51.246ZM315.587+56.1855C316.172+56.7713+316.172+57.7208+315.587+58.3065L313.647+60.246L325.026+60.246C325.855+60.246+326.526+60.9176+326.526+61.746C326.526+62.5745+325.855+63.246+325.026+63.246L313.647+63.246L315.587+65.1855C316.155+65.7741+316.147+66.7097+315.569+67.2883C314.99+67.8669+314.054+67.875+313.466+67.3066L308.966+62.8065C308.38+62.2208+308.38+61.2713+308.966+60.6855L313.466+56.1855C314.052+55.6+315.001+55.6+315.587+56.1855Z" fill-rule="evenodd" fill="#000000" opacity="1"/>
<path stroke="#000000" vectornator:shadowColor="#000000" vectornator:shadowOffset="24.4764" stroke-width="4" fill="#8e8e8e" stroke-linecap="round" vectornator:shadowAngle="45" stroke-linejoin="round" opacity="1" vectornator:shadowRadius="27.1712" d="M68.4548+142.545L299.753+142.545C304.084+142.545+307.595+145.454+307.595+149.044L307.595+341.123C307.595+344.713+304.084+347.622+299.753+347.622L68.4548+347.622C64.1236+347.622+60.6125+344.713+60.6125+341.123L60.6125+149.044C60.6125+145.454+64.1236+142.545+68.4548+142.545Z" vectornator:shadowOpacity="0.141964"/>
<path stroke="#000000" stroke-width="1" d="M90.8356+175.113L267.171+175.113C269.227+175.113+270.893+176.779+270.893+178.835L270.893+196.858C270.893+198.913+269.227+200.58+267.171+200.58L90.8356+200.58C88.7801+200.58+87.1139+198.913+87.1139+196.858L87.1139+178.835C87.1139+176.779+88.7801+175.113+90.8356+175.113Z" fill="#e3e3e3" stroke-linecap="round" opacity="1" stroke-linejoin="round"/>
<path stroke="#000000" stroke-width="1" d="M91.3224+238.311L267.658+238.311C269.714+238.311+271.38+239.977+271.38+242.033L271.38+260.056C271.38+262.111+269.714+263.778+267.658+263.778L91.3224+263.778C89.2669+263.778+87.6007+262.111+87.6007+260.056L87.6007+242.033C87.6007+239.977+89.2669+238.311+91.3224+238.311Z" fill="#e3e3e3" stroke-linecap="round" opacity="1" stroke-linejoin="round"/>
<path stroke="#236626" stroke-width="1" d="M92.3718+295.749L271.533+295.749C272.808+295.749+273.842+296.783+273.842+298.058L273.842+318.907C273.842+320.182+272.808+321.216+271.533+321.216L92.3718+321.216C91.0965+321.216+90.0627+320.182+90.0627+318.907L90.0627+298.058C90.0627+296.783+91.0965+295.749+92.3718+295.749Z" fill="#358839" stroke-linecap="round" opacity="1" stroke-linejoin="round"/>
<text x="0" font-family="Helvetica" y="0" text-anchor="middle" vectornator:text="Login" fill="#000000" font-size="18" vectornator:width="182.147" opacity="1" transform="matrix(1 0 0 1 89.9749 294.311)">
<tspan x="91.9735" y="17" textLength="44.042">
Login</tspan>
</text>
<text x="0" font-family="Helvetica" y="0" text-anchor="start" vectornator:text="Username" fill="#000000" font-size="14" vectornator:width="103.726" opacity="1" transform="matrix(1 0 0 1 87.7597 156.969)">
<tspan x="0" y="14" textLength="64.5791">
Username</tspan>
</text>
<text x="0" font-family="Helvetica" y="0" text-anchor="start" vectornator:text="Password" fill="#000000" font-size="14" vectornator:width="103.726" opacity="1" transform="matrix(1 0 0 1 86.6847 220.95)">
<tspan x="0" y="14" textLength="61.4688">
Password</tspan>
</text>
</g>
</svg>
