<?xml version="1.0" encoding="UTF-8" standalone="no"?> <!-- Created with Vectornator for iOS (http://vectornator.io/) --><!DOCTYPE svg PUBLIC "-//W3C//DTD SVG 1.1//EN" "http://www.w3.org/Graphics/SVG/1.1/DTD/svg11.dtd">
<svg height="100%" style="fill-rule:nonzero;clip-rule:evenodd;stroke-linecap:round;stroke-linejoin:round;" xmlns:xlink="http://www.w3.org/1999/xlink" xmlns="http://www.w3.org/2000/svg" xml:space="preserve" width="100%" xmlns:vectornator="http://vectornator.io" version="1.1" viewBox="0 0 375 667">
<metadata>
<vectornator:setting key="DimensionsVisible" value="1"/>
<vectornator:setting key="PencilOnly" value="0"/>
<vectornator:setting key="SnapToPoints" value="0"/>
<vectornator:setting key="GuidesVisible" value="1"/>
<vectornator:setting key="RulersVisible" value="1"/>
<vectornator:setting key="CMYKEnabledKey" value="0"/>
<vectornator:setting key="OutlineMode" value="0"/>
<vectornator:setting key="SnapToEdges" value="0"/>
<vectornator:setting key="DisplayWhiteBackground" value="0"/>
<vectornator:setting key="doHistoryDisabled" value="0"/>
<vectornator:setting key="TimeLapseWatermarkDisabled" value="0"/>
<vectornator:setting key="SnapToGuides" value="1"/>
<vectornator:setting key="Units" value="Points"/>
<vectornator:setting key="SnapToGrid" value="0"/>
<vectornator:setting key="IsolateActiveLayer" value="0"/>
<vectornator:setting key="DynamicGuides" value="0"/>
</metadata>
<defs/>
<g id="phone" vectornator:layerName="phone">
<path stroke="#000000" stroke-width="24" d="M10.2834+9.46167L364.916+9.46167L364.916+656.035L10.2834+656.035L10.2834+9.46167Z" fill="#111111" stroke-linecap="round" fill-opacity="0.913641" opacity="1" stroke-linejoin="round"/>
<path d="M175+13.3635C175+16.6772+177.686+19.3635+181+19.3635C184.314+19.3635+187+16.6772+187+13.3635C187+10.0498+184.314+7.36352+181+7.36352C177.686+7.36352+175+10.0498+175+13.3635Z" opacity="1" fill="#f6f6f6"/>
</g>
<g id="Cover" vectornator:layerName="Cover">
<path stroke="#000000" stroke-width="4" d="M264.56+103L103.93+103L103.93+270.092L264.56+270.092L264.56+103Z" fill="#bababa" stroke-linecap="round" opacity="1" stroke-linejoin="round"/>
<path d="M227.75+149.107C227.749+147.385+226.976+145.754+225.644+144.662C224.312+143.571+222.562+143.134+220.873+143.472L163.373+154.972C160.686+155.509+158.752+157.867+158.75+160.607L158.75+213.012C156.865+212.573+154.936+212.353+153+212.357C143.472+212.357+135.75+217.503+135.75+223.857C135.75+230.21+143.472+235.357+153+235.357C162.528+235.357+170.25+230.21+170.25+223.857L170.25+176.822L216.25+167.622L216.25+201.512C214.365+201.073+212.436+200.853+210.5+200.857C200.972+200.857+193.25+206.003+193.25+212.357C193.25+218.71+200.972+223.857+210.5+223.857C220.028+223.857+227.75+218.71+227.75+212.357C227.75+212.357+227.75+149.107+227.75+149.107Z" opacity="1" fill="#000000"/>
</g>
<g id="Header" vectornator:layerName="Header">
<path d="M21.6551+21.8854L353.088+21.8854L353.088+38.0626L21.6551+38.0626L21.6551+21.8854Z" opacity="1" fill="#00600f"/>
<path d="M21.9879+37.9609L353.421+37.9609L353.421+87.1316L21.9879+87.1316L21.9879+37.9609Z" opacity="1" fill="#388e3c"/>
<text x="0" font-family="Helvetica" y="0" text-anchor="start" vectornator:text="Sfeir&#x20;Playlist" fill="#000000" font-size="18" vectornator:width="165.428" opacity="1" transform="matrix(1 0 0 1 45.8732 51.7146)">
<tspan x="0" y="17" textLength="99.0264">
Sfeir Playlist</tspan>
</text>
<g opacity="1">
<path d="M320+55.8399C320+54.4592+321.119+53.3399+322.5+53.3399C323.881+53.3399+325+54.4592+325+55.8399C325+57.2206+323.881+58.3399+322.5+58.3399C321.119+58.3399+320+57.2206+320+55.8399Z" opacity="1" fill="#000000"/>
<path d="M320+63.94C320+62.5593+321.119+61.44+322.5+61.44C323.881+61.44+325+62.5593+325+63.94C325+65.3207+323.881+66.44+322.5+66.44C321.119+66.44+320+65.3207+320+63.94Z" opacity="1" fill="#000000"/>
<path d="M320+71.8399C320+70.4592+321.119+69.3399+322.5+69.3399C323.881+69.3399+325+70.4592+325+71.8399C325+73.2206+323.881+74.3399+322.5+74.3399C321.119+74.3399+320+73.2206+320+71.8399Z" opacity="1" fill="#000000"/>
</g>
</g>
<g id="play-button" vectornator:layerName="play-button">
<path d="M297.821+64.6409L273.821+76.6379L273.825+52.6379L297.821+64.6409Z" opacity="1" fill="#000000"/>
</g>
<g id="Song 1" vectornator:layerName="Song 1">
<path d="M23.4775+300.646L352.873+300.646L352.873+364.882L23.4775+364.882L23.4775+300.646Z" opacity="1" fill="#bababa"/>
<text x="0" font-family="Helvetica-Bold" y="0" text-anchor="middle" vectornator:text="First&#x20;song" fill="#000000" font-size="18" vectornator:width="182.625" opacity="1" transform="matrix(1 0 0 1 93.1838 311.509)">
<tspan x="43.5015" y="17" textLength="87.0029">
First song</tspan>
</text>
<text x="0" font-family="Helvetica" y="0" text-anchor="middle" vectornator:text="Artist" fill="#000000" font-size="18" vectornator:width="138.558" opacity="1" transform="matrix(1 0 0 1 94.2039 335.9)"/>
<path stroke="#000000" stroke-width="4" d="M81.2154+306.364L31.3754+306.364L31.3754+360.074L81.2154+360.074L81.2154+306.364Z" fill="#bababa" stroke-linecap="round" opacity="1" stroke-linejoin="round"/>
<path d="M69.794+320.184C69.7937+319.631+69.554+319.106+69.1407+318.756C68.7274+318.405+68.1842+318.264+67.6603+318.373L49.8193+322.069C48.9857+322.242+48.3854+323+48.3849+323.881L48.3849+340.726C47.8+340.585+47.2013+340.514+46.6008+340.515C43.6445+340.515+41.2485+342.17+41.2485+344.212C41.2485+346.254+43.6445+347.909+46.6008+347.909C49.557+347.909+51.9531+346.254+51.9531+344.212L51.9531+329.093L66.2258+326.136L66.2258+337.03C65.641+336.888+65.0423+336.818+64.4417+336.819C61.4855+336.819+59.0895+338.473+59.0895+340.515C59.0895+342.558+61.4855+344.212+64.4417+344.212C67.398+344.212+69.794+342.558+69.794+340.515C69.794+340.515+69.794+320.184+69.794+320.184Z" opacity="1" fill="#000000"/>
<g opacity="1">
<path d="M331.066+322.315C331.066+320.61+332.448+319.228+334.153+319.228C335.858+319.228+337.24+320.61+337.24+322.315C337.24+324.02+335.858+325.402+334.153+325.402C332.448+325.402+331.066+324.02+331.066+322.315Z" opacity="1" fill="#000000"/>
<path d="M331.883+344.141C331.883+342.436+333.265+341.053+334.97+341.053C336.675+341.053+338.058+342.436+338.058+344.141C338.058+345.846+336.675+347.228+334.97+347.228C333.265+347.228+331.883+345.846+331.883+344.141Z" opacity="1" fill="#000000"/>
<path d="M331.276+333.07C331.276+331.365+332.658+329.983+334.363+329.983C336.068+329.983+337.451+331.365+337.451+333.07C337.451+334.775+336.068+336.157+334.363+336.157C332.658+336.157+331.276+334.775+331.276+333.07Z" opacity="1" fill="#000000"/>
</g>
</g>
<g id="Song 2" vectornator:layerName="Song 2">
<path d="M22.4775+370.646L351.873+370.646L351.873+434.882L22.4775+434.882L22.4775+370.646Z" opacity="1" fill="#bababa"/>
<text x="0" font-family="Helvetica-Bold" y="0" text-anchor="middle" vectornator:text="Second&#x20;song" fill="#000000" font-size="18" vectornator:width="182.625" opacity="1" transform="matrix(1 0 0 1 92.1838 381.509)">
<tspan x="56.5049" y="17" textLength="113.01">
Second song</tspan>
</text>
<text x="0" font-family="Helvetica" y="0" text-anchor="middle" vectornator:text="Artist" fill="#000000" font-size="18" vectornator:width="138.558" opacity="1" transform="matrix(1 0 0 1 93.2039 405.9)"/>
<path stroke="#000000" stroke-width="4" d="M80.2154+376.364L30.3754+376.364L30.3754+430.074L80.2154+430.074L80.2154+376.364Z" fill="#bababa" stroke-linecap="round" opacity="1" stroke-linejoin="round"/>
<path d="M68.794+390.184C68.7937+389.631+68.554+389.106+68.1407+388.756C67.7274+388.405+67.1842+388.264+66.6603+388.373L48.8193+392.069C47.9857+392.242+47.3854+393+47.3849+393.881L47.3849+410.726C46.8+410.585+46.2013+410.514+45.6008+410.515C42.6445+410.515+40.2485+412.17+40.2485+414.212C40.2485+416.254+42.6445+417.909+45.6008+417.909C48.557+417.909+50.9531+416.254+50.9531+414.212L50.9531+399.093L65.2258+396.136L65.2258+407.03C64.641+406.888+64.0423+406.818+63.4417+406.819C60.4855+406.819+58.0895+408.473+58.0895+410.515C58.0895+412.558+60.4855+414.212+63.4417+414.212C66.398+414.212+68.794+412.558+68.794+410.515C68.794+410.515+68.794+390.184+68.794+390.184Z" opacity="1" fill="#000000"/>
<g opacity="1">
<path d="M332.756+394.279C332.756+392.574+334.138+391.192+335.843+391.192C337.548+391.192+338.93+392.574+338.93+394.279C338.93+395.984+337.548+397.366+335.843+397.366C334.138+397.366+332.756+395.984+332.756+394.279Z" opacity="1" fill="#000000"/>
<path d="M333.573+416.105C333.573+414.4+334.955+413.018+336.66+413.018C338.365+413.018+339.747+414.4+339.747+416.105C339.747+417.81+338.365+419.192+336.66+419.192C334.955+419.192+333.573+417.81+333.573+416.105Z" opacity="1" fill="#000000"/>
<path d="M332.966+405.034C332.966+403.329+334.348+401.947+336.053+401.947C337.758+401.947+339.14+403.329+339.14+405.034C339.14+406.739+337.758+408.122+336.053+408.122C334.348+408.122+332.966+406.739+332.966+405.034Z" opacity="1" fill="#000000"/>
</g>
</g>
<g id="Song 3" vectornator:layerName="Song 3">
<path d="M21.4775+440.646L350.873+440.646L350.873+504.882L21.4775+504.882L21.4775+440.646Z" opacity="1" fill="#bababa"/>
<text x="0" font-family="Helvetica-Bold" y="0" text-anchor="middle" vectornator:text="Third&#x20;song" fill="#000000" font-size="18" vectornator:width="182.625" opacity="1" transform="matrix(1 0 0 1 91.1838 451.509)">
<tspan x="46.4941" y="17" textLength="92.9883">
Third song</tspan>
</text>
<text x="0" font-family="Helvetica" y="0" text-anchor="middle" vectornator:text="Artist" fill="#000000" font-size="18" vectornator:width="138.558" opacity="1" transform="matrix(1 0 0 1 92.2039 475.9)"/>
<path stroke="#000000" stroke-width="4" d="M79.2154+446.364L29.3754+446.364L29.3754+500.074L79.2154+500.074L79.2154+446.364Z" fill="#bababa" stroke-linecap="round" opacity="1" stroke-linejoin="round"/>
<path d="M67.794+460.184C67.7937+459.631+67.554+459.106+67.1407+458.756C66.7274+458.405+66.1842+458.264+65.6603+458.373L47.8193+462.069C46.9857+462.242+46.3854+463+46.3849+463.881L46.3849+480.726C45.8+480.585+45.2013+480.514+44.6008+480.515C41.6445+480.515+39.2485+482.17+39.2485+484.212C39.2485+486.254+41.6445+487.909+44.6008+487.909C47.557+487.909+49.9531+486.254+49.9531+484.212L49.9531+469.093L64.2258+466.136L64.2258+477.03C63.641+476.888+63.0423+476.818+62.4417+476.819C59.4855+476.819+57.0895+478.473+57.0895+480.515C57.0895+482.558+59.4855+484.212+62.4417+484.212C65.398+484.212+67.794+482.558+67.794+480.515C67.794+480.515+67.794+460.184+67.794+460.184Z" opacity="1" fill="#000000"/>
<g opacity="1">
<path d="M331.942+461.627C331.942+459.922+333.324+458.54+335.029+458.54C336.734+458.54+338.116+459.922+338.116+461.627C338.116+463.332+336.734+464.715+335.029+464.715C333.324+464.715+331.942+463.332+331.942+461.627Z" opacity="1" fill="#000000"/>
<path d="M332.759+483.453C332.759+481.748+334.141+480.366+335.846+480.366C337.551+480.366+338.933+481.748+338.933+483.453C338.933+485.158+337.551+486.54+335.846+486.54C334.141+486.54+332.759+485.158+332.759+483.453Z" opacity="1" fill="#000000"/>
<path d="M332.152+472.383C332.152+470.678+333.534+469.296+335.239+469.296C336.944+469.296+338.326+470.678+338.326+472.383C338.326+474.088+336.944+475.47+335.239+475.47C333.534+475.47+332.152+474.088+332.152+472.383Z" opacity="1" fill="#000000"/>
</g>
</g>
<g id="bottom" vectornator:layerName="bottom">
<path stroke="#000000" stroke-opacity="0.913641" stroke-width="2" d="M20.3932+589.049L353.255+589.049L353.255+645.4L20.3932+645.4L20.3932+589.049Z" fill="#141414" stroke-linecap="round" opacity="1" stroke-linejoin="round"/>
<path stroke="#bababa" stroke-width="2" d="M292.158+597.971C292.158+596.499+293.351+595.305+294.824+595.305L308.158+595.305C309.63+595.305+310.824+596.499+310.824+597.971L310.824+619.305L301.491+614.638L292.158+619.305L292.158+597.971Z" fill="none" stroke-linecap="round" opacity="1" stroke-linejoin="round"/>
<g opacity="1">
<path stroke="#bababa" stroke-width="2" d="M192.5+621.863L183.295+612.658" fill="none" stroke-linecap="round" opacity="1" stroke-linejoin="round"/>
<path stroke="#bababa" stroke-width="2" d="M168.129+606.513C168.129+601.736+171.957+597.863+176.679+597.863C181.401+597.863+185.229+601.736+185.229+606.513C185.229+611.29+181.401+615.163+176.679+615.163C171.957+615.163+168.129+611.29+168.129+606.513Z" fill="none" stroke-linecap="round" opacity="1" stroke-linejoin="round"/>
</g>
<path stroke="#bababa" stroke-width="2" d="M57.9888+608.079L60.6555+605.412M60.6555+605.412L69.9888+596.079L79.3222+605.412M60.6555+605.412L60.6555+618.745C60.6555+619.482+61.2525+620.079+61.9888+620.079L65.9888+620.079M79.3222+605.412L81.9888+608.079M79.3222+605.412L79.3222+618.745C79.3222+619.482+78.7252+620.079+77.9888+620.079L73.9888+620.079M65.9888+620.079C66.7252+620.079+67.3222+619.482+67.3222+618.745L67.3222+613.412C67.3222+612.676+67.9191+612.079+68.6555+612.079L71.3222+612.079C72.0586+612.079+72.6555+612.676+72.6555+613.412L72.6555+618.745C72.6555+619.482+73.2525+620.079+73.9888+620.079M65.9888+620.079L73.9888+620.079" fill="none" stroke-linecap="round" opacity="1" stroke-linejoin="round"/>
<text x="0" font-family="Helvetica" y="0" text-anchor="middle" vectornator:text="Home" fill="#bababa" font-size="12" vectornator:width="80" opacity="1" transform="matrix(1 0 0 1 29.6425 625.848)">
<tspan x="40.6" y="12" textLength="32.0098">
Home</tspan>
</text>
<text x="0" font-family="Helvetica" y="0" text-anchor="middle" vectornator:text="Search&#xA;" fill="#bababa" font-size="12" vectornator:width="80" opacity="1" transform="matrix(1 0 0 1 143.273 626.809)">
<tspan x="40.6" y="12" textLength="38.0215">
Search
</tspan>
</text>
<text x="0" font-family="Helvetica" y="0" text-anchor="middle" vectornator:text="Favourites&#xA;" fill="#bababa" font-size="12" vectornator:width="80" opacity="1" transform="matrix(1 0 0 1 262.413 626.632)">
<tspan x="40.6" y="12" textLength="56.0215">
Favourites
</tspan>
</text>
</g>
</svg>
